<svg width="888" height="638" viewBox="0 0 888 638" fill="none" xmlns="http://www.w3.org/2000/svg">
<rect width="888" height="638" fill="#F6FBFF"/>
<g clip-path="url(#clip0)">
<path d="M688.385 302.514L556.135 137.25C550.13 142.742 542.731 146.478 534.747 148.05C509.849 152.953 485.534 135.951 480.438 110.075C478.682 101.517 479.296 92.6419 482.214 84.4075C485.132 76.1731 490.243 68.892 496.997 63.3501L451.903 7L195 226.563L431.482 522.077L688.385 302.514Z" fill="#F2F2F2"/>
<path d="M524.059 140.198C544.65 140.198 561.343 123.506 561.343 102.915C561.343 82.3234 544.65 65.631 524.059 65.631C503.468 65.631 486.775 82.3234 486.775 102.915C486.775 123.506 503.468 140.198 524.059 140.198Z" fill="#F2F2F2"/>
<path d="M290.77 269.044L279.362 282.246L317.795 315.455L329.203 302.253L290.77 269.044Z" fill="#575757"/>
<path d="M537.831 505.145L526.423 518.347L560.491 547.783L571.898 534.581L537.831 505.145Z" fill="#575757"/>
<path d="M599.385 406.81V407.834C599.362 410.405 599.288 412.964 599.164 415.511C596.947 459.107 578.139 500.204 546.597 530.38C515.054 560.556 473.165 577.526 429.513 577.811C385.862 578.097 343.754 561.677 311.819 531.916C279.884 502.155 260.541 461.308 257.753 417.744C257.521 414.127 257.404 410.482 257.404 406.81C257.343 371.395 268.334 336.844 288.846 307.973C290.486 305.647 292.192 303.363 293.964 301.122C295.185 299.563 296.441 298.04 297.709 296.527C326.574 262.332 367.691 240.812 412.24 236.585C456.79 232.357 501.221 245.759 536.002 273.915C538.061 275.578 540.085 277.3 542.063 279.056C543.645 280.464 545.199 281.902 546.727 283.372C576.814 312.151 595.333 350.942 598.792 392.433C599.187 397.179 599.385 401.971 599.385 406.81Z" fill="#01AAAD"/>
<path d="M428.395 599.32C322.245 599.32 235.885 512.96 235.885 406.81C235.822 358.244 254.178 311.46 287.251 275.895L291.514 279.852C259.441 314.342 241.64 359.712 241.701 406.81C241.701 509.754 325.452 593.504 428.395 593.504C453.407 593.589 478.178 588.606 501.213 578.857C524.247 569.107 545.069 554.794 562.421 536.779L566.596 540.827C548.704 559.404 527.234 574.163 503.481 584.216C479.729 594.269 454.187 599.407 428.395 599.32Z" fill="#575757"/>
<path d="M456.312 595.249H407.457V644.103H456.312V595.249Z" fill="#575757"/>
<path d="M293.964 301.122C294.048 301.157 294.126 301.204 294.196 301.262C295.115 302.018 293.964 303.472 294.103 304.67C294.266 306.205 296.313 306.542 297.86 306.694C299.408 306.857 301.362 308.101 300.629 309.474C296.744 310.811 292.812 309.497 288.846 307.973C268.334 336.844 257.343 371.395 257.404 406.81C257.404 410.486 257.521 414.131 257.753 417.744C258.079 417.982 258.435 418.174 258.812 418.314C259.975 418.756 261.324 418.675 262.395 419.303C263.244 419.803 263.814 420.687 264.663 421.153C267.094 422.479 270.467 419.931 272.735 421.513C273.322 422.047 273.877 422.614 274.399 423.212C276.493 425.026 279.936 423.805 282.355 425.166C283.914 426.038 284.716 427.783 285.554 429.365C287.636 433.32 291.009 437.205 295.464 437.519C296.869 437.454 298.277 437.501 299.675 437.658C301.048 437.972 302.397 439.171 302.176 440.555C301.792 442.939 302.967 445.545 302.653 447.929C302.083 452.291 295.906 454.199 295.383 458.561C295.381 459.521 295.327 460.48 295.22 461.434C294.941 462.574 294.08 463.505 293.778 464.645C293.196 466.797 294.743 468.949 296.43 470.391C298.128 471.845 300.152 473.101 301.083 475.125C302.06 477.277 301.583 479.778 301.897 482.116C302.595 487.222 307.003 491.003 311.54 493.445C312.993 494.053 314.284 494.993 315.309 496.191C316.472 497.877 316.355 500.099 316.751 502.111C317.705 507.032 321.846 511.091 321.962 516.105C322.043 519.676 320.066 522.909 318.88 526.271C317.659 529.795 317.296 533.559 317.821 537.252C324.453 542.877 331.503 547.99 338.91 552.548C339.313 551.952 339.608 551.291 339.782 550.594C339.923 549.822 339.826 549.027 339.504 548.312C339.182 547.597 338.65 546.998 337.979 546.592C339.229 546.12 340.367 545.391 341.318 544.452C341.785 543.971 342.093 543.359 342.202 542.697C342.31 542.036 342.212 541.357 341.923 540.753C343.97 541.009 346.401 541.137 347.75 539.566C348.832 538.31 348.762 536.426 348.332 534.832C347.741 533.283 347.35 531.665 347.169 530.016C351.912 530.247 356.666 530.088 361.383 529.54C360.7 527.239 359.148 525.294 357.056 524.119C359.196 523.758 361.139 521.199 361.813 519.141C362.397 517.04 362.429 514.825 361.906 512.708C361.745 512.164 361.721 511.589 361.837 511.033C362.181 510.295 362.786 509.711 363.535 509.393C367.071 507.357 370.607 505.326 374.143 503.298C374.774 502.98 375.348 502.559 375.841 502.053C376.946 500.739 376.784 498.773 376.214 497.156C375.644 495.539 374.736 494.015 374.515 492.317C373.864 487.234 379.308 483.582 381.146 478.789C381.771 476.876 382.108 474.881 382.146 472.869C382.297 470.705 382.309 468.204 380.657 466.82C379.063 465.482 376.586 465.785 374.923 464.54C373.399 463.4 372.875 461.202 371.212 460.283C369.7 459.445 367.815 459.98 366.129 459.585C363.174 458.898 361.313 455.49 358.289 455.176C356.59 454.99 354.66 455.828 353.264 454.839C352.031 453.955 351.984 452.198 351.752 450.71C351.339 448.39 350.225 446.253 348.562 444.586C346.898 442.918 344.764 441.799 342.446 441.381C340.69 441.101 338.782 441.206 337.281 440.241C335.769 439.264 335.083 437.437 333.885 436.076C331.977 433.901 328.953 433.122 326.126 432.459C322.288 431.563 318.453 430.664 314.622 429.76C312.587 429.272 309.958 429.016 308.853 430.807C308.526 431.488 308.299 432.213 308.178 432.959C307.763 434.302 306.934 435.479 305.81 436.322C304.687 437.166 303.325 437.634 301.92 437.658C300.958 436.016 299.4 434.808 297.57 434.285C296.374 434.084 295.193 433.805 294.034 433.448C293.428 433.151 292.89 432.734 292.451 432.222C292.013 431.711 291.683 431.115 291.483 430.471C291.283 429.828 291.216 429.15 291.286 428.48C291.357 427.81 291.563 427.161 291.893 426.573C292.553 425.393 292.807 424.028 292.615 422.69C292.424 421.351 291.799 420.112 290.835 419.164C288.881 417.407 286.054 416.977 283.425 417.151C282.739 415.651 283.891 413.964 285.124 412.871C286.368 411.789 287.869 410.719 288.136 409.09C288.567 406.531 285.298 404.589 282.82 405.345C280.343 406.112 278.761 408.52 277.714 410.893C277.206 412.293 276.514 413.62 275.655 414.836C275.215 415.439 274.617 415.907 273.927 416.19C273.238 416.474 272.483 416.561 271.747 416.442C269.699 415.918 268.92 413.487 268.466 411.44C267.74 408.704 267.372 405.884 267.373 403.053C267.391 400.194 268.526 397.455 270.537 395.423C273.922 392.305 279.133 392.608 283.704 393.108C283.215 392.455 282.98 391.646 283.044 390.832C283.109 390.018 283.467 389.256 284.053 388.688C284.665 388.145 285.4 387.759 286.195 387.564C286.99 387.37 287.82 387.372 288.613 387.571C289.991 387.856 291.233 388.598 292.138 389.676C293.44 391.258 293.813 393.41 294.79 395.202C295.778 397.005 297.989 398.54 299.792 397.575C301.362 396.737 301.606 394.573 301.222 392.84C300.827 391.119 300.001 389.432 300.14 387.664C300.408 384.302 303.909 382.267 306.992 380.883C310.074 379.498 313.599 377.626 314.087 374.276C314.11 373.624 314.235 372.98 314.459 372.368C314.801 371.821 315.278 371.373 315.844 371.065C324.835 365.121 333.99 359.096 344.272 355.851C344.807 355.676 344.866 355.862 345.412 355.734C346.18 355.292 345.668 354.071 344.935 353.582C344.203 353.094 343.225 352.71 343.039 351.849C342.911 351.221 343.284 350.593 343.377 349.953C343.401 349.567 343.33 349.18 343.17 348.828C343.011 348.475 342.767 348.167 342.46 347.93C342.154 347.694 341.794 347.536 341.412 347.471C341.03 347.406 340.639 347.435 340.271 347.557C339.445 346.464 341.074 345.196 342.4 344.823C346.37 343.736 350.445 343.073 354.555 342.846C355.029 342.768 355.516 342.849 355.939 343.079C356.241 343.37 356.421 343.767 356.44 344.186C356.46 344.606 356.318 345.017 356.044 345.335C355.484 345.957 354.865 346.522 354.194 347.022C353.527 347.67 353.05 348.489 352.817 349.39C352.583 350.29 352.601 351.237 352.868 352.128C355.02 353.222 357.347 354.35 359.731 353.966C362.104 353.582 364.21 350.907 363.093 348.778C362.058 346.789 358.929 346.336 358.394 344.16C357.765 341.613 361.371 339.345 360.557 336.856C360.208 335.762 359.115 335.111 358.277 334.331C357.292 333.361 356.621 332.116 356.354 330.759C356.086 329.402 356.233 327.996 356.777 326.724C355.415 326.962 354.016 326.871 352.697 326.458C351.377 326.045 350.176 325.323 349.193 324.351C347.378 322.525 345.936 319.629 343.353 319.722C340.992 319.791 338.956 322.548 336.746 321.711C336.2 321.501 335.63 321.083 335.106 321.327C334.934 321.438 334.788 321.587 334.682 321.762C334.575 321.937 334.509 322.134 334.49 322.339C333.931 325.026 334.897 328.085 333.431 330.411C331.838 332.936 328.15 333.284 326.219 335.564C325.173 336.797 324.765 338.461 323.8 339.764C322.834 341.066 320.799 341.904 319.636 340.764C320.205 339.596 320.361 338.269 320.078 337.001C319.795 335.733 319.089 334.599 318.077 333.785C317.006 333.081 315.848 332.519 314.634 332.11C313.277 331.537 311.986 330.819 310.784 329.969C310.184 329.604 309.697 329.081 309.376 328.457C309.122 327.673 309.155 326.823 309.469 326.061C310.058 324.381 311.094 322.893 312.465 321.758C313.836 320.623 315.491 319.882 317.251 319.617C318.787 319.408 320.578 319.477 321.601 318.303C322.137 317.686 322.416 316.744 323.207 316.5C323.705 316.395 324.224 316.457 324.684 316.674C326.603 317.349 328.511 318.023 330.43 318.698C331.07 318.992 331.777 319.108 332.477 319.035C332.824 318.991 333.141 318.815 333.364 318.545C333.587 318.275 333.698 317.931 333.675 317.581C333.489 316.627 332.024 316.174 332.163 315.208C332.231 314.893 332.398 314.608 332.64 314.394C334.715 312.187 337.252 310.467 340.069 309.355C342.886 308.243 345.914 307.767 348.937 307.962C349.658 309.16 348.518 310.567 347.552 311.579C346.599 312.603 345.831 314.417 346.994 315.197C347.463 315.443 347.988 315.563 348.518 315.546C349.932 315.736 351.307 316.152 352.589 316.779C354.578 317.64 356.532 318.593 358.44 319.617C358.159 318.37 358.207 317.071 358.58 315.848C358.79 315.248 359.216 314.747 359.775 314.444C360.334 314.141 360.986 314.057 361.604 314.208C362.744 314.65 363.325 316.162 364.547 316.302C366.164 316.488 366.803 314.092 366.129 312.603C365.454 311.114 364.105 309.881 364 308.241C363.919 307.147 364.338 305.786 363.465 305.123C363.155 304.918 362.8 304.79 362.43 304.751C355.125 303.414 347.816 302.072 340.503 300.727C339.201 300.482 337.328 300.668 337.27 301.983C337.235 302.727 337.898 303.46 337.607 304.135C337.293 304.856 336.269 304.798 335.525 305.054C334.966 305.307 334.504 305.736 334.21 306.276C333.917 306.815 333.806 307.436 333.897 308.043C334.095 309.253 334.565 310.402 335.269 311.405C333.838 310.811 331.686 310.707 330.256 310.102C330.048 308.445 329.625 306.823 328.999 305.275C328.964 305.028 328.874 304.793 328.738 304.585C328.601 304.377 328.421 304.201 328.209 304.07C327.997 303.939 327.759 303.856 327.512 303.827C327.265 303.798 327.014 303.824 326.778 303.902C324.893 304.193 323.009 304.472 321.125 304.763C320.651 304.785 320.198 304.961 319.833 305.263C319.101 306.042 319.822 307.287 319.799 308.357C319.73 308.956 319.478 309.518 319.075 309.966C318.673 310.414 318.141 310.726 317.554 310.858C316.37 311.098 315.148 311.083 313.971 310.811C311.33 310.404 308.702 309.997 306.061 309.59C308.392 308.847 310.465 307.46 312.04 305.589C313.087 304.356 313.645 302.053 312.133 301.471C311.686 301.348 311.22 301.313 310.76 301.366C307.178 301.39 304.351 298.4 301.001 297.132C299.948 296.739 298.834 296.535 297.709 296.527L293.964 301.122Z" fill="#3AB54A"/>
<path d="M599.164 415.511C598.754 416.062 598.215 416.503 597.594 416.797C596.974 417.091 596.291 417.229 595.605 417.198C591.964 416.884 590.429 411.638 586.823 411.044C586.504 410.963 586.166 410.996 585.869 411.137C585.334 411.428 585.241 412.149 585.206 412.754C585.055 415.755 584.927 418.873 586.102 421.641C587.811 425.689 592.243 429.086 591.313 433.378C586.311 431.063 583.705 425.445 582.53 420.059C581.344 414.674 581.158 409.02 579.041 403.926C577.424 405.984 574.051 404.286 572.585 402.123C571.189 400.075 570.329 397.702 568.979 395.62C567.63 393.55 565.559 391.689 563.093 391.572C560.499 391.456 558.243 393.236 556.265 394.922C554.545 396.193 553.101 397.8 552.02 399.645C550.636 402.437 550.996 405.717 550.926 408.823C550.857 412.173 550.147 415.72 547.855 418.186C545.564 420.641 541.342 421.501 538.817 419.28C537.597 418.007 536.727 416.44 536.293 414.732C533.549 406.734 531.265 398.586 529.454 390.328C529.035 392.212 527.372 394.643 525.79 393.538C525.436 393.237 525.15 392.865 524.952 392.445C521.998 387.455 516.542 384.454 511.017 382.651C505.503 380.859 499.699 380.022 494.244 378.044C491.184 376.933 488.261 375.478 485.531 373.706C484.838 374.727 484.433 375.917 484.359 377.149C484.285 378.382 484.546 379.611 485.112 380.708C485.726 381.781 486.676 382.622 487.816 383.099C488.956 383.577 490.222 383.664 491.417 383.349C492.627 382.953 493.65 382.116 494.848 381.697C496.047 381.29 497.663 381.487 498.187 382.651C498.699 383.756 497.931 385.093 498.315 386.257C498.885 388.013 501.548 388.152 502.479 389.758C502.753 390.393 502.815 391.1 502.658 391.774C502.501 392.448 502.133 393.054 501.607 393.503C500.536 394.376 499.355 395.104 498.094 395.667C494.185 397.842 491.405 401.553 487.986 404.437C484.566 407.334 479.738 409.439 475.667 407.59C476.633 402.669 470.782 399.063 469.7 394.166C469.339 392.549 469.526 390.84 469.025 389.269C468.293 386.989 466.269 385.431 464.617 383.709C462.61 381.596 461.046 379.102 460.018 376.375C458.989 373.649 458.516 370.744 458.626 367.831C458.719 365.807 459.092 363.749 458.626 361.771C458.173 359.805 456.533 357.898 454.509 357.979C449.891 358.189 444.063 358.537 441.644 354.594C440.771 353.187 440.399 351.128 441.655 350.046C442.146 349.735 442.694 349.524 443.267 349.426C443.84 349.329 444.427 349.345 444.994 349.476C448.472 349.813 451.938 350.162 455.416 350.5C457.847 350.732 460.476 350.93 462.57 349.662C464.663 348.394 465.571 345.009 463.628 343.509C462.221 342.416 459.685 342.474 459.266 340.741C458.929 339.287 460.534 337.646 459.662 336.425C459.045 335.564 457.649 335.797 456.8 336.448C456.059 337.218 455.254 337.922 454.392 338.554C452.729 339.414 450.752 338.589 448.96 338.03C447.169 337.472 444.773 337.425 443.912 339.089C442.935 340.938 444.761 343.381 443.807 345.242C442.528 347.696 438.224 346.301 436.433 348.418C434.385 350.837 437.828 354.466 437.142 357.56C436.258 357.999 435.276 358.2 434.292 358.145C433.307 358.09 432.353 357.78 431.524 357.246C430.71 356.693 430.061 355.929 429.648 355.035C429.234 354.142 429.07 353.154 429.174 352.175C429.337 350.779 430.07 349.348 429.581 348.034C429.054 347.019 428.185 346.223 427.127 345.789C423.754 343.916 420.38 342.051 417.007 340.194C416.065 341.939 417.251 344.09 418.74 345.405C420.218 346.708 422.079 347.696 423.056 349.418C423.674 350.611 423.814 351.995 423.447 353.288C423.079 354.581 422.232 355.685 421.078 356.374C420.932 356.474 420.766 356.542 420.591 356.572C420.417 356.602 420.238 356.594 420.066 356.548C419.905 356.454 419.764 356.328 419.652 356.178C419.541 356.028 419.46 355.857 419.415 355.676C417.635 351.105 414.948 346.603 410.668 344.218C406.375 341.822 400.222 342.322 397.407 346.335C396.744 347.289 396.29 348.383 395.709 349.395C392.626 354.757 385.996 357.293 379.808 357.13C379.203 357.169 378.599 357.027 378.075 356.723C377.074 356.036 377.121 354.571 377.272 353.361C377.493 351.651 377.703 349.953 377.924 348.243C377.929 347.199 378.332 346.196 379.052 345.44C380.203 344.532 381.855 345.102 383.321 345.079C384.427 345.03 385.491 344.64 386.367 343.964C387.244 343.287 387.89 342.356 388.218 341.299C388.513 340.231 388.51 339.104 388.211 338.038C387.912 336.972 387.327 336.008 386.52 335.25C385.857 334.622 384.961 333.831 385.31 332.982C385.452 332.748 385.643 332.548 385.87 332.395C386.097 332.242 386.354 332.141 386.624 332.098C389.241 331.342 392.022 331.144 394.592 330.237C397.174 329.341 399.675 327.503 400.292 324.839C400.478 324.025 400.559 323.036 401.292 322.629C401.662 322.481 402.057 322.402 402.455 322.397C403.854 322.196 405.127 321.48 406.025 320.389C406.922 319.298 407.379 317.91 407.306 316.499C408.539 315.639 410.272 316.278 411.47 317.197C412.657 318.116 413.715 319.326 415.169 319.721C417.88 320.466 420.497 318.058 423.312 318.046C424.498 318.046 425.719 318.465 426.824 318.058C427.953 317.651 428.628 316.534 429.488 315.708C430.361 314.871 431.873 314.371 432.675 315.266C432.443 313.58 432.222 311.905 431.989 310.23C433.359 310.575 434.788 310.623 436.178 310.37C437.569 310.117 438.889 309.569 440.05 308.764C437.119 307.775 434.199 306.787 431.268 305.798C430.96 305.722 430.676 305.57 430.442 305.356C429.802 304.67 430.442 303.599 430.954 302.82C432.198 300.947 432.408 297.865 430.361 296.934C428.965 296.295 427.371 297.062 426.034 297.807C423.893 298.993 421.753 300.191 419.613 301.378C419.415 302.599 420.904 303.297 421.823 304.111C422.383 304.608 422.779 305.263 422.96 305.989C423.141 306.715 423.097 307.479 422.835 308.181C422.574 308.882 422.105 309.487 421.493 309.918C420.88 310.348 420.152 310.582 419.403 310.59C419.825 311.141 420.118 311.778 420.261 312.457C420.404 313.135 420.393 313.837 420.229 314.51C418.798 314.615 417.356 314.72 415.914 314.824C415.674 314.872 415.427 314.872 415.188 314.824C414.948 314.776 414.721 314.681 414.518 314.545C414.053 314.138 414.122 313.417 414.006 312.812C413.814 312.089 413.411 311.44 412.847 310.949C412.283 310.457 411.585 310.146 410.842 310.055C409.36 309.889 407.86 310.027 406.434 310.462C405.813 310.681 405.135 310.664 404.526 310.416C404.181 310.187 403.919 309.852 403.782 309.462C403.528 308.664 403.485 307.815 403.656 306.996C403.828 306.177 404.207 305.415 404.759 304.786C405.876 303.545 407.106 302.412 408.434 301.401C411.444 298.766 413.656 295.341 414.82 291.514C417.193 290.513 419.648 289.164 422.032 288.164C423.949 287.275 425.958 286.601 428.023 286.151C429.966 285.855 431.934 285.761 433.897 285.872C436.572 285.919 439.259 285.965 441.935 286.024C444.323 285.923 446.709 286.266 448.972 287.035C451.17 287.943 453.113 289.909 453.264 292.281C453.31 292.552 453.286 292.83 453.194 293.088C453.103 293.347 452.946 293.577 452.741 293.759C452.432 293.93 452.081 294.01 451.729 293.991C449.507 294.061 448.565 294.62 446.343 294.701C447.75 296.201 449.332 297.783 451.38 298.051C454.986 298.516 457.58 294.782 459.243 291.537C459.302 292.363 459.682 293.133 460.302 293.683C460.921 294.233 461.731 294.519 462.558 294.48C463.449 294.327 464.3 293.994 465.059 293.503C472.214 289.593 480.228 287.522 488.381 287.477C488.301 286.86 488.453 286.235 488.808 285.724C489.162 285.212 489.694 284.851 490.3 284.709C491.964 284.383 493.453 285.814 494.255 287.303C495.046 288.792 495.546 290.513 496.826 291.63C498.094 292.747 500.548 292.689 501.048 291.083C501.537 289.536 499.92 288.21 498.582 287.291C497.233 286.384 495.826 284.697 496.733 283.348C503.572 281.824 510.47 280.312 517.484 280.01C518.676 280.046 519.864 279.84 520.974 279.405C521.524 279.172 521.981 278.764 522.276 278.245C522.57 277.725 522.685 277.123 522.602 276.532C521.072 276.889 519.47 276.783 517.999 276.228C516.529 275.673 515.256 274.694 514.344 273.414C521.544 272.821 529.081 272.298 536.002 273.915L542.063 279.056C540.911 280.254 539.376 281.382 540.213 282.58C540.49 282.856 540.825 283.064 541.193 283.191C541.562 283.318 541.955 283.36 542.342 283.313C543.808 283.337 545.273 283.371 546.727 283.371C576.814 312.15 595.333 350.942 598.792 392.433C596.349 392.34 594.104 395.434 594.418 398.133C594.791 401.262 597.047 403.774 598.664 406.473C598.932 406.912 599.173 407.366 599.385 407.834L599.164 415.511Z" fill="#3AB54A"/>
<path d="M278.737 87.0252C286.887 87.0252 293.493 80.4189 293.493 72.2696C293.493 64.1203 286.887 57.514 278.737 57.514C270.588 57.514 263.982 64.1203 263.982 72.2696C263.982 80.4189 270.588 87.0252 278.737 87.0252Z" stroke="#3F3D56" stroke-width="2" stroke-miterlimit="10"/>
<path d="M714.737 368.025C722.887 368.025 729.493 361.419 729.493 353.27C729.493 345.12 722.887 338.514 714.737 338.514C706.588 338.514 699.982 345.12 699.982 353.27C699.982 361.419 706.588 368.025 714.737 368.025Z" stroke="#3F3D56" stroke-width="2" stroke-miterlimit="10"/>
<path d="M614.004 221.025C622.153 221.025 628.76 214.419 628.76 206.27C628.76 198.12 622.153 191.514 614.004 191.514C605.855 191.514 599.249 198.12 599.249 206.27C599.249 214.419 605.855 221.025 614.004 221.025Z" stroke="#3F3D56" stroke-width="2" stroke-miterlimit="10"/>
<path d="M517.193 347.48C526.338 347.48 533.752 340.067 533.752 330.921C533.752 321.776 526.338 314.362 517.193 314.362C508.048 314.362 500.634 321.776 500.634 330.921C500.634 340.067 508.048 347.48 517.193 347.48Z" fill="#3F3D56"/>
<path d="M517.385 339C521.803 339 525.385 335.642 525.385 331.5C525.385 327.358 521.803 324 517.385 324C512.967 324 509.385 327.358 509.385 331.5C509.385 335.642 512.967 339 517.385 339Z" fill="white"/>
<path d="M589.917 258.77C584.059 253.055 576.17 249.901 567.986 250.002C559.802 250.104 551.993 253.452 546.278 259.311C534.377 271.51 517.385 333.121 517.385 333.121C517.385 333.121 578.556 314.609 590.458 302.409C596.173 296.551 599.327 288.662 599.226 280.478C599.124 272.294 595.776 264.485 589.917 258.77V258.77ZM557.856 291.635C555.831 289.66 554.438 287.129 553.852 284.362C553.266 281.595 553.513 278.716 554.563 276.09C555.613 273.464 557.418 271.208 559.75 269.607C562.083 268.007 564.837 267.134 567.665 267.099C570.493 267.064 573.269 267.868 575.64 269.41C578.011 270.952 579.871 273.163 580.986 275.763C582.101 278.362 582.419 281.234 581.902 284.015C581.385 286.795 580.054 289.36 578.079 291.385C575.431 294.1 571.812 295.652 568.019 295.699C564.227 295.746 560.571 294.284 557.856 291.635V291.635Z" fill="#C4302B"/>
<path d="M584.473 379.623C586.77 398.235 591.546 412.962 595.14 412.518C598.734 412.075 599.785 396.628 597.487 378.017C595.19 359.405 590.414 344.678 586.82 345.121C583.226 345.565 582.175 361.012 584.473 379.623Z" fill="#3F3D56"/>
<path opacity="0.1" d="M587.722 377.551C589.859 394.861 592.959 408.724 594.646 408.516C596.333 408.308 595.968 394.106 593.831 376.797C591.694 359.487 588.594 345.623 586.907 345.831C585.22 346.04 585.585 360.241 587.722 377.551Z" fill="black"/>
<path d="M680.07 383.753L672.77 384.654L672.199 380.034L592.579 389.864L593.77 399.506L670.359 390.05L673.39 389.676L680.69 388.775L680.07 383.753Z" fill="#575A89"/>
<path d="M627.89 364.362L640.425 362.815L639.697 356.922L627.162 358.47L626.89 356.26L588.87 360.954L590.135 371.199L628.154 366.505L627.89 364.362Z" fill="#575A89"/>
<path d="M607.627 367.884L606.643 359.915L588.873 362.109L589.857 370.077L607.627 367.884Z" fill="#3F3D56"/>
<path opacity="0.1" d="M606.8 361.188L606.643 359.915L588.873 362.109L589.03 363.381L606.8 361.188Z" fill="black"/>
<path d="M683.073 375.224L678.803 375.752L677.348 363.966L681.618 363.439L681.188 359.957L589.997 371.216L592.304 389.898L683.495 378.639L683.073 375.224Z" fill="#3F3D56"/>
<path opacity="0.1" d="M683.395 377.836L683.073 375.224L678.803 375.751L679.125 378.363L683.395 377.836Z" fill="black"/>
<path opacity="0.1" d="M681.511 362.569L681.188 359.957L589.997 371.216L590.32 373.827L681.511 362.569Z" fill="black"/>
<path d="M653.508 349.847L656.952 349.421L656.737 347.68L653.293 348.106L652.905 344.958L587.749 353.003L588.733 360.971L653.889 352.927L653.508 349.847Z" fill="#3F3D56"/>
<path opacity="0.1" d="M656.853 348.618L656.737 347.68L653.293 348.106L653.409 349.043L656.853 348.618Z" fill="black"/>
<path opacity="0.1" d="M653.02 345.896L652.905 344.958L587.749 353.003L587.865 353.94L653.02 345.896Z" fill="black"/>
<path opacity="0.1" d="M648.269 382.172L647.947 379.561L591.882 386.483L592.205 389.094L648.269 382.172Z" fill="black"/>
<path opacity="0.1" d="M653.889 352.927L653.591 350.516L641.607 351.996L641.904 354.406L653.889 352.927Z" fill="black"/>
<path d="M670.436 368.015L669.973 364.265L666.667 364.673L667.13 368.423L670.436 368.015Z" fill="#FF6584"/>
<path d="M637.395 380.184L636.932 376.434L633.626 376.842L634.089 380.592L637.395 380.184Z" fill="#FF6584"/>
<path d="M612.58 375.158L612.117 371.408L608.811 371.816L609.274 375.566L612.58 375.158Z" fill="#FF6584"/>
<path d="M638.755 352.688L638.292 348.938L634.986 349.346L635.449 353.096L638.755 352.688Z" fill="#FF6584"/>
<path d="M605.442 366.046L604.979 362.296L601.673 362.704L602.136 366.454L605.442 366.046Z" fill="#FF6584"/>
<path opacity="0.1" d="M625.03 364.987L624.236 358.559L618.726 359.239L619.52 365.667L625.03 364.987Z" fill="black"/>
<path opacity="0.1" d="M666.797 388.383L666.003 381.954L660.493 382.635L661.287 389.063L666.797 388.383Z" fill="black"/>
<path opacity="0.1" d="M655.088 389.828L654.294 383.4L648.784 384.08L649.578 390.508L655.088 389.828Z" fill="black"/>
<path opacity="0.1" d="M643.379 391.274L642.586 384.846L637.076 385.526L637.869 391.954L643.379 391.274Z" fill="black"/>
<path opacity="0.1" d="M631.67 392.719L630.877 386.291L625.367 386.971L626.16 393.4L631.67 392.719Z" fill="black"/>
<path opacity="0.1" d="M619.962 394.165L619.168 387.737L613.658 388.417L614.452 394.845L619.962 394.165Z" fill="black"/>
<path opacity="0.1" d="M608.253 395.61L607.459 389.182L601.949 389.863L602.743 396.291L608.253 395.61Z" fill="black"/>
<path d="M642.393 395.746L657.408 393.893L656.829 389.205L641.814 391.059L641.608 389.385L592.982 395.388L593.966 403.357L642.592 397.353L642.393 395.746Z" fill="#3F3D56"/>
<path opacity="0.1" d="M657.011 390.678L656.829 389.205L641.814 391.059L641.996 392.532L657.011 390.678Z" fill="black"/>
<path opacity="0.1" d="M641.79 390.858L641.608 389.385L592.982 395.388L593.164 396.862L641.79 390.858Z" fill="black"/>
<path opacity="0.1" d="M618.21 400.364L617.722 396.413L612.901 397.008L613.388 400.959L618.21 400.364Z" fill="black"/>
<path d="M625.364 399.412L624.901 395.662L621.595 396.071L622.058 399.82L625.364 399.412Z" fill="#FF6584"/>
<path d="M474.706 223.343C475.221 222.717 475.592 221.947 475.782 221.112C476.288 218.967 475.597 216.918 474.231 216.534C472.865 216.15 471.354 217.579 470.848 219.725C470.644 220.556 470.628 221.425 470.802 222.244C470.293 222.875 469.922 223.643 469.726 224.475C469.53 225.306 469.514 226.174 469.68 226.994C469.171 227.625 468.801 228.393 468.605 229.224C468.408 230.056 468.392 230.923 468.558 231.744C468.05 232.375 467.679 233.142 467.483 233.974C467.287 234.806 467.271 235.673 467.437 236.494C466.922 237.119 466.551 237.889 466.362 238.724C465.855 240.869 466.546 242.92 467.91 243.303C469.275 243.687 470.789 242.257 471.295 240.111C471.499 239.281 471.515 238.411 471.342 237.592C471.849 236.961 472.219 236.194 472.415 235.364C472.611 234.534 472.627 233.667 472.462 232.848C472.971 232.217 473.341 231.449 473.537 230.618C473.733 229.786 473.749 228.919 473.583 228.098C474.092 227.467 474.462 226.699 474.659 225.868C474.855 225.036 474.871 224.169 474.705 223.348L474.706 223.343Z" fill="#3F3D56"/>
<path d="M473.354 175.51C473.141 174.902 472.966 174.276 472.827 173.636L479.697 174.228L472.595 172.278C472.351 170.343 472.452 168.351 472.892 166.423C473.332 164.496 474.101 162.673 475.153 161.067L483.205 169.575L476.339 159.491C477.578 158.05 479.046 156.907 480.652 156.132C482.259 155.358 483.969 154.969 485.676 154.99C487.383 155.011 489.051 155.441 490.575 156.254C492.099 157.067 493.446 158.245 494.534 159.715C495.621 161.184 496.425 162.914 496.894 164.796C497.364 166.678 497.49 168.672 497.265 170.654C497.039 172.635 496.467 174.562 495.583 176.313C494.7 178.065 493.524 179.604 492.129 180.834C492.462 181.779 492.704 182.769 492.85 183.786L483.041 186.59L493.005 185.578C493.087 187.977 492.652 190.391 491.739 192.603C490.826 194.815 489.464 196.755 487.775 198.247C488.643 200.716 488.883 203.454 488.466 206.148C488.05 208.842 486.996 211.383 485.423 213.481C483.85 215.579 481.822 217.148 479.572 218.011C477.322 218.873 474.94 218.993 472.698 218.356C470.457 217.72 468.446 216.353 466.896 214.412C465.347 212.472 464.321 210.035 463.935 207.381C463.55 204.727 463.821 201.964 464.718 199.406C465.614 196.848 467.1 194.6 469.005 192.918C467.969 189.968 467.834 186.648 468.623 183.492C469.412 180.337 471.078 177.528 473.354 175.518L473.354 175.51Z" fill="#57B894"/>
<path opacity="0.1" d="M493.341 190.794C492.528 193.899 490.813 196.659 488.475 198.628C489.356 201.06 489.593 203.754 489.16 206.403C488.726 209.053 487.639 211.55 486.023 213.61C484.407 215.671 482.326 217.21 480.02 218.053C477.714 218.896 475.275 219.008 472.982 218.376C470.688 217.745 468.634 216.396 467.053 214.482C465.472 212.569 464.428 210.169 464.041 207.558C463.654 204.946 463.939 202.228 464.864 199.713C465.79 197.199 467.317 194.991 469.272 193.341C468.247 190.533 493.749 189.241 493.341 190.794Z" fill="black"/>
</g>
<path d="M375.485 249.335L390.725 241.657L381.364 235.674L377.641 237.161L378.633 233.928L355.082 218.875L353.316 215.369L351.603 216.231L328.141 195.518L328.639 192.044L326.14 191.544L325.144 192.046L291.595 139.926L292.468 139.486L291.811 134.835L287.925 127.121L286.132 128.024L284.248 124.284L282.006 125.413L278.356 118.167L277.908 118.392L274.375 111.38L273.927 111.605L277.459 118.618L276.787 118.957L280.437 126.203L278.42 127.22L280.304 130.96L278.287 131.976L282.173 139.69L285.744 142.874L286.651 142.417L310.021 199.664L310.002 199.674L307.56 202.077L310.542 204.091L310.772 204.269L310.66 204.325L315.008 234.666L312.748 235.805L314.739 239.198L312.281 281.175L327.746 273.384L325.861 269.644L324.965 270.096C324.965 270.096 317.516 248.057 337.642 235.574C358.922 224.267 374.262 244.676 374.262 244.676L373.365 245.127L375.485 249.335ZM382.154 236.45L383.851 238.331L380.219 237.816L382.154 236.45ZM379.181 238.729L383.567 239.255L379.824 240.75L379.181 238.729ZM376.395 242.868L377.231 239.321L379.384 241.363L376.395 242.868ZM365.947 230.84L367.657 232.323L363.385 232.13L365.947 230.84ZM364.349 230.138L363.797 228.406L367.557 228.857L364.349 230.138ZM373.397 236.173L375.392 237.903L370.408 237.678L373.397 236.173ZM368.517 236.579L369.233 233.539L371.078 235.289L368.517 236.579ZM371.456 234.764L370.905 233.032L374.664 233.482L371.456 234.764ZM376.745 237.612L374.293 235.721L377.581 234.065L376.745 237.612ZM374.908 232.69L371.795 232.248L373.453 231.078L374.908 232.69ZM372.793 230.406L369.585 231.687L370.436 228.914L372.793 230.406ZM368.817 232.074L366.715 230.453L369.533 229.034L368.817 232.074ZM367.8 228.064L364.687 227.623L366.346 226.452L367.8 228.064ZM365.686 225.78L362.478 227.061L363.328 224.288L365.686 225.78ZM361.709 227.448L359.608 225.827L362.425 224.408L361.709 227.448ZM356.451 225.617L355.9 223.885L359.659 224.336L356.451 225.617ZM360.55 227.697L356.278 227.505L358.839 226.214L360.55 227.697ZM359.903 223.543L356.79 223.102L358.448 221.931L359.903 223.543ZM357.788 221.259L354.58 222.54L355.431 219.767L357.788 221.259ZM354.528 219.887L353.811 222.927L351.71 221.306L354.528 219.887ZM352.652 223.176L348.38 222.984L350.942 221.693L352.652 223.176ZM324.479 229.896L318.276 206.057L325.448 202.444L342.412 220.862L324.479 229.896ZM343.357 228.152L339.085 227.96L341.646 226.669L343.357 228.152ZM337.23 230.653L336.872 232.173L335.821 231.362L337.23 230.653ZM336.292 232.297L334.156 232.201L335.437 231.556L336.292 232.297ZM318.47 224.57L320.772 220.773L321.877 225.198L318.47 224.57ZM321.44 226.004L316.061 228.714L318.033 225.376L321.44 226.004ZM292.116 147.261L291.666 148.728L290.219 148.217L292.116 147.261ZM290.002 147.785L290.452 146.319L291.898 146.83L290.002 147.785ZM293.311 149.635L291.415 150.59L291.865 149.124L293.311 149.635ZM291.955 148.83L292.405 147.364L293.401 149.342L291.955 148.83ZM293.929 150.474L295.106 152.811L293.397 152.207L293.929 150.474ZM290.542 146.025L290.992 144.559L291.988 146.537L290.542 146.025ZM289.488 143.332L289.842 142.177L290.627 143.735L289.488 143.332ZM290.557 143.966L289.062 144.719L289.417 143.563L290.557 143.966ZM289.26 143.252L288.12 142.849L289.614 142.096L289.26 143.252ZM289.189 143.483L288.834 144.638L288.049 143.08L289.189 143.483ZM290.703 144.456L290.253 145.923L288.806 145.412L290.703 144.456ZM290.163 146.216L289.713 147.683L288.716 145.705L290.163 146.216ZM291.576 149.021L291.126 150.488L290.129 148.51L291.576 149.021ZM293.587 150.353L293.055 152.086L291.345 151.482L293.587 150.353ZM295 153.158L292.758 154.287L293.29 152.554L295 153.158ZM295.695 153.98L296.872 156.318L295.163 155.714L295.695 153.98ZM295.353 153.859L294.821 155.593L293.112 154.988L295.353 153.859ZM296.766 156.664L294.525 157.794L295.057 156.06L296.766 156.664ZM297.509 157.71L298.959 160.587L296.855 159.844L297.509 157.71ZM298.828 161.014L296.069 162.404L296.724 160.27L298.828 161.014ZM299.629 161.918L301.078 164.795L298.974 164.051L299.629 161.918ZM299.208 161.769L298.553 163.903L296.45 163.159L299.208 161.769ZM300.947 165.222L298.189 166.611L298.843 164.478L300.947 165.222ZM301.765 166.309L303.532 169.815L300.967 168.909L301.765 166.309ZM303.372 170.335L300.01 172.029L300.808 169.429L303.372 170.335ZM304.356 171.452L306.122 174.958L303.558 174.052L304.356 171.452ZM303.843 171.27L303.045 173.87L300.481 172.964L303.843 171.27ZM305.963 175.478L302.601 177.172L303.399 174.572L305.963 175.478ZM306.963 176.778L309.047 180.913L306.022 179.844L306.963 176.778ZM308.858 181.527L304.893 183.524L305.834 180.458L308.858 181.527ZM310.308 183.547L312.664 188.222L309.245 187.013L310.308 183.547ZM312.451 188.915L307.968 191.173L309.032 187.707L312.451 188.915ZM313.834 190.631L316.37 195.666L312.688 194.364L313.834 190.631ZM313.097 190.371L311.952 194.104L308.27 192.802L313.097 190.371ZM316.141 196.412L311.314 198.844L312.459 195.111L316.141 196.412ZM318.147 213.889L313.664 216.147L315.529 213.156L318.147 213.889ZM315.742 212.462L317.714 209.124L319.161 213.671L315.742 212.462ZM319.184 214.832L320.513 219.144L317.66 217.944L319.184 214.832ZM317.828 214.929L316.528 217.928L314.017 216.848L317.828 214.929ZM319.959 219.717L315.252 222.088L316.775 218.976L319.959 219.717ZM328.561 232.968L328.613 235.621L325.743 234.387L328.561 232.968ZM329.33 232.581L331.891 231.29L329.503 234.838L329.33 232.581ZM340.513 212.794L339.203 216.012L336.084 212.692L340.513 212.794ZM334.857 211.596L331.954 208.147L335.387 208.538L334.857 211.596ZM336.731 208.346L340.164 208.737L335.636 211.436L336.731 208.346ZM335.984 207.572L332.766 207.053L336.432 204.868L335.984 207.572ZM331.721 206.762L332.517 204.155L336.033 204.192L331.721 206.762ZM330.992 207.502L327.956 203.828L331.821 203.961L330.992 207.502ZM318.072 195.44L319.218 191.706L322.899 193.008L318.072 195.44ZM317.336 195.179L314.799 190.144L318.481 191.446L317.336 195.179ZM315.028 189.398L319.856 186.966L318.71 190.699L315.028 189.398ZM314.244 188.012L315.308 184.545L318.726 185.754L314.244 188.012ZM313.56 187.77L311.205 183.095L314.624 184.304L313.56 187.77ZM309.84 180.514L307.756 176.378L310.781 177.447L309.84 180.514ZM311.386 177.661L314.41 178.73L310.445 180.728L311.386 177.661ZM294.231 147.684L293.781 149.151L292.784 147.173L294.231 147.684ZM292.874 146.879L294.771 145.924L294.321 147.391L292.874 146.879ZM296.143 153.754L297.853 154.359L297.321 156.092L296.143 153.754ZM296.249 153.408L298.491 152.279L297.959 154.012L296.249 153.408ZM300.181 161.64L302.284 162.384L301.63 164.517L300.181 161.64ZM300.311 161.214L303.07 159.824L302.415 161.957L300.311 161.214ZM305.028 171.113L307.592 172.019L306.795 174.619L305.028 171.113ZM305.188 170.593L308.55 168.899L307.752 171.499L305.188 170.593ZM308.105 172.201L310.669 173.107L307.307 174.801L308.105 172.201ZM308.265 171.681L309.063 169.081L310.829 172.587L308.265 171.681ZM304.717 169.658L305.515 167.058L308.079 167.964L304.717 169.658ZM304.204 169.477L302.438 165.97L305.002 166.877L304.204 169.477ZM302.705 162.533L304.809 163.276L302.051 164.666L302.705 162.533ZM302.836 162.106L303.491 159.973L304.94 162.85L302.836 162.106ZM299.931 160.458L300.586 158.325L302.69 159.069L299.931 160.458ZM299.51 160.31L298.061 157.433L300.165 158.176L299.51 160.31ZM298.194 154.48L299.904 155.084L297.663 156.213L298.194 154.48ZM298.301 154.133L298.833 152.4L300.01 154.737L298.301 154.133ZM295.896 152.706L296.428 150.973L298.138 151.577L295.896 152.706ZM295.554 152.586L294.377 150.248L296.086 150.852L295.554 152.586ZM294.52 147.786L295.966 148.297L294.07 149.253L294.52 147.786ZM294.61 147.493L295.06 146.026L296.056 148.004L294.61 147.493ZM292.657 146.448L293.107 144.981L294.553 145.492L292.657 146.448ZM292.368 146.345L291.371 144.367L292.818 144.879L292.368 146.345ZM291.58 142.278L291.934 141.123L292.719 142.681L291.58 142.278ZM292.648 142.912L291.154 143.665L291.509 142.51L292.648 142.912ZM291.352 142.198L290.212 141.795L291.706 141.042L291.352 142.198ZM291.281 142.429L290.926 143.585L290.141 142.026L291.281 142.429ZM345.232 224.863L344.516 227.903L342.415 226.282L345.232 224.863ZM340.115 216.078L341.425 212.86L345.29 212.993L340.115 216.078ZM345.323 212.059L341.325 211.7L342.254 209.319L345.323 212.059ZM340.413 211.635L336.897 211.598L341.209 209.028L340.413 211.635ZM340.197 207.803L336.896 207.638L337.344 204.934L340.197 207.803ZM335.851 203.387L332.55 203.221L333.131 200.743L335.851 203.387ZM332.649 200.42L331.986 203.253L328.122 203.119L332.649 200.42ZM323.128 192.261L319.447 190.96L320.592 187.226L323.128 192.261ZM318.939 185.061L315.52 183.852L316.584 180.385L318.939 185.061ZM314.836 183.61L311.418 182.402L315.9 180.144L314.836 183.61ZM314.598 178.117L311.574 177.048L312.515 173.981L314.598 178.117ZM310.969 176.834L307.944 175.765L311.91 173.767L310.969 176.834ZM308.238 167.444L305.674 166.538L306.472 163.938L308.238 167.444ZM305.161 166.357L302.597 165.45L305.959 163.757L305.161 166.357ZM302.82 158.642L300.716 157.898L301.371 155.765L302.82 158.642ZM300.296 157.75L298.192 157.006L300.95 155.616L300.296 157.75ZM298.244 151.231L296.534 150.626L297.066 148.893L298.244 151.231ZM296.193 150.506L294.483 149.901L296.724 148.772L296.193 150.506ZM294.643 145.199L293.197 144.688L293.647 143.221L294.643 145.199ZM292.908 144.585L291.461 144.074L293.358 143.119L292.908 144.585ZM291.239 151.829L292.948 152.433L292.417 154.166L291.239 151.829ZM293.005 155.335L294.715 155.939L294.183 157.673L293.005 155.335ZM297.088 157.562L296.434 159.695L294.33 158.951L297.088 157.562ZM294.199 159.378L296.303 160.122L295.648 162.255L294.199 159.378ZM296.319 163.586L298.423 164.329L297.768 166.463L296.319 163.586ZM301.252 166.128L300.455 168.728L297.89 167.821L301.252 166.128ZM297.731 168.341L300.295 169.248L299.497 171.848L297.731 168.341ZM300.322 173.484L302.886 174.39L302.088 176.99L300.322 173.484ZM306.358 176.564L305.417 179.63L302.393 178.561L306.358 176.564ZM302.205 179.175L305.229 180.244L304.288 183.31L302.205 179.175ZM309.625 183.305L308.561 186.772L305.142 185.563L309.625 183.305ZM304.929 186.257L308.348 187.465L307.284 190.932L304.929 186.257ZM308.041 193.549L311.723 194.851L310.577 198.584L308.041 193.549ZM317.03 208.883L315.058 212.22L312.323 211.254L317.03 208.883ZM312.335 211.834L314.728 212.68L313.087 215.558L312.335 211.834ZM313.581 217.654L316.092 218.734L314.45 221.612L313.581 217.654ZM319.415 220.87L317.55 223.861L314.933 223.128L319.415 220.87ZM314.614 224.168L317.113 224.667L315.26 228.239L314.614 224.168ZM322.254 236.145L319.866 239.693L319.692 237.436L322.254 236.145ZM318.924 237.823L318.976 240.476L316.106 239.242L318.924 237.823ZM315.472 239.897L318.207 240.863L315.268 242.679L315.472 239.897ZM321.634 244.957L319.246 248.504L319.073 246.247L321.634 244.957ZM316.627 246.014L318.502 242.724L319.566 244.198L316.627 246.014ZM315.416 243.61L317.343 242.973L315.845 245.738L315.416 243.61ZM318.304 246.634L318.356 249.288L315.487 248.054L318.304 246.634ZM314.853 248.708L317.588 249.675L314.649 251.49L314.853 248.708ZM321.399 262.367L318.613 266.506L318.411 263.872L321.399 262.367ZM315.495 263.29L317.37 260L318.434 261.474L315.495 263.29ZM319.081 261.483L318.773 258.959L321.642 260.193L319.081 261.483ZM321.121 253.421L318.733 256.969L318.56 254.712L321.121 253.421ZM316.008 254.825L317.883 251.536L318.947 253.01L316.008 254.825ZM314.796 252.421L316.724 251.785L315.226 254.549L314.796 252.421ZM317.791 255.099L317.843 257.752L314.974 256.518L317.791 255.099ZM314.34 257.173L317.075 258.139L314.136 259.955L314.34 257.173ZM314.283 260.886L316.211 260.249L314.713 263.014L314.283 260.886ZM317.514 264.324L317.575 267.42L314.227 265.98L317.514 264.324ZM313.422 271.075L315.671 270.333L313.923 273.558L313.422 271.075ZM314.835 273.88L317.023 270.042L318.264 271.762L314.835 273.88ZM313.25 269.989L313.488 266.743L316.679 267.871L313.25 269.989ZM319.019 271.773L318.659 268.827L322.007 270.267L319.019 271.773ZM323.045 269.353L319.697 267.914L323.126 265.795L323.045 269.353ZM322.954 264.71L319.667 266.366L322.752 262.076L322.954 264.71ZM322.532 259.41L319.663 258.176L322.602 256.36L322.532 259.41ZM322.454 255.43L319.636 256.849L322.28 253.172L322.454 255.43ZM319.594 253.019L319.285 250.494L322.155 251.728L319.594 253.019ZM323.045 250.945L320.175 249.711L323.115 247.895L323.045 250.945ZM322.967 246.965L320.149 248.384L322.793 244.708L322.967 246.965ZM320.213 244.207L319.905 241.683L322.774 242.917L320.213 244.207ZM323.664 242.134L320.795 240.9L323.734 239.084L323.664 242.134ZM320.769 239.573L323.413 235.896L323.586 238.154L320.769 239.573ZM325.053 238.755L326.981 238.118L325.483 240.883L325.053 238.755ZM326.264 241.159L328.14 237.869L329.204 239.343L326.264 241.159ZM324.906 237.824L325.11 235.042L327.845 236.008L324.906 237.824ZM329.85 239.352L329.542 236.828L332.412 238.062L329.85 239.352ZM333.302 237.279L330.432 236.045L333.371 234.229L333.302 237.279ZM330.406 234.718L333.05 231.041L333.224 233.299L330.406 234.718ZM333.711 232.593L335.975 232.624L334.566 233.334L333.711 232.593ZM334.896 233.67L336.501 233.03L336.142 234.55L334.896 233.67ZM336.722 234.425L337.08 232.905L338.003 233.78L336.722 234.425ZM337.681 230.593L338.86 231.339L337.256 231.979L337.681 230.593ZM338.192 233.518L337.916 232.652L339.796 232.877L338.192 233.518ZM338.361 232.26L339.19 231.675L339.917 232.481L338.361 232.26ZM338.195 228.743L342.723 228.806L339.905 230.226L338.195 228.743ZM340.565 230.898L343.774 229.617L343.057 232.657L340.565 230.898ZM344.216 232.408L344.933 229.368L346.778 231.118L344.216 232.408ZM346.135 224.743L348.493 226.235L345.284 227.516L346.135 224.743ZM347.155 230.593L346.604 228.861L350.364 229.312L347.155 230.593ZM347.494 228.078L349.153 226.907L350.607 228.519L347.494 228.078ZM347.49 223.767L352.019 223.831L349.201 225.25L347.49 223.767ZM349.861 225.922L353.069 224.641L352.353 227.682L349.861 225.922ZM354.228 224.392L356.073 226.142L353.512 227.433L354.228 224.392ZM357.098 229.771L355.388 228.288L359.916 228.351L357.098 229.771ZM357.758 230.443L360.967 229.162L360.25 232.202L357.758 230.443ZM362.126 228.913L363.971 230.663L361.409 231.953L362.126 228.913ZM362.495 232.914L367.024 232.977L364.206 234.397L362.495 232.914ZM364.866 235.069L368.074 233.788L367.358 236.828L364.866 235.069ZM369.37 238.592L374.653 238.666L371.366 240.322L369.37 238.592ZM372.136 241.106L375.879 239.612L375.043 243.159L372.136 241.106Z" fill="#3F3D56"/>
<defs>
<clipPath id="clip0">
<rect width="888" height="637.962" fill="white"/>
</clipPath>
</defs>
</svg>
