<svg width="1137" height="777" viewBox="0 0 1137 777" fill="none" xmlns="http://www.w3.org/2000/svg">
<rect width="1137" height="777" fill="#F6FBFF"/>
<path d="M1066.1 517.934C1061.02 561.444 1050.47 596.377 1035.98 624.237C1016.71 661.358 983.742 676.314 954.293 691.964C945.783 696.478 936.935 700.325 927.83 703.47C874.24 722.069 814.261 717.135 767.147 707.315C734.102 700.422 700.559 696.181 666.838 694.633C657.221 694.2 647.594 693.984 637.957 693.988C623.097 694.007 355.533 699.085 290.389 567.197C274.305 534.663 263.281 494.922 259.32 446.478C248.113 309.52 309.711 219.571 389.166 160.777C539.47 49.5598 745.494 54.224 893.581 168.371C992.223 244.405 1084.58 359.477 1066.1 517.934Z" fill="#3F3D56"/>
<path d="M872.66 385.697C830.963 354.525 765.655 325.044 693.482 304.816C627.769 286.397 563.674 277.504 512.992 279.775L512.728 273.881C564.014 271.584 628.774 280.551 695.075 299.135C767.92 319.552 833.936 349.381 876.193 380.971L872.66 385.697Z" fill="#3AB54A"/>
<path d="M868.331 409.707C868.368 437.325 862.578 464.64 851.339 489.868C850.401 491.98 849.424 494.073 848.407 496.146C832.21 529.326 807.016 557.288 775.699 576.845C744.381 596.402 708.199 606.768 671.277 606.761C562.449 606.761 474.223 518.535 474.223 409.707C474.223 405.147 474.378 400.621 474.689 396.132C474.836 393.848 475.027 391.579 475.261 389.323C485.462 290.07 569.334 212.653 671.277 212.653C780.105 212.653 868.331 300.879 868.331 409.707Z" fill="#01AAAD"/>
<path opacity="0.1" d="M851.339 489.868C850.401 491.98 849.424 494.073 848.407 496.146C842.649 496.771 836.588 497.225 830.224 497.508C824.955 497.744 819.534 497.862 813.994 497.862C765.603 497.862 707.366 488.93 647.872 472.257C581.57 453.673 521.586 427.678 478.966 399.058C477.515 398.085 476.089 397.109 474.689 396.132C474.836 393.848 475.027 391.579 475.261 389.323C477.521 390.934 479.851 392.547 482.252 394.161C524.371 422.439 583.753 448.156 649.465 466.576C708.44 483.107 766.128 491.963 813.964 491.963C819.433 491.963 824.765 491.847 829.958 491.614C837.522 491.272 844.649 490.69 851.339 489.868Z" fill="black"/>
<path d="M813.994 493.144C765.605 493.145 707.365 484.211 647.874 467.537C581.572 448.954 521.586 422.958 478.965 394.339C435.455 365.122 415.052 336.334 421.515 313.276C427.977 290.218 460.371 276.227 512.728 273.881L512.992 279.775C488.542 280.871 468.616 284.505 453.768 290.576C438.956 296.633 430.016 304.806 427.196 314.868C424.375 324.931 427.766 336.559 437.271 349.432C446.801 362.336 461.935 375.797 482.254 389.441C524.368 417.72 583.752 443.438 649.466 461.856C708.442 478.386 766.126 487.244 813.966 487.245C819.432 487.245 824.762 487.129 829.957 486.896C854.407 485.8 874.333 482.167 889.181 476.095C903.993 470.039 912.933 461.866 915.753 451.803C920.817 433.735 905.513 410.258 872.66 385.697L876.193 380.972C893.099 393.611 905.613 406.069 913.389 418C921.725 430.792 924.432 442.701 921.434 453.396C914.971 476.454 882.578 490.444 830.221 492.79C824.953 493.027 819.534 493.144 813.994 493.144Z" fill="#3AB54A"/>
<path d="M676.49 177.114C677.737 177.114 678.748 176.103 678.748 174.856C678.748 173.609 677.737 172.598 676.49 172.598C675.243 172.598 674.232 173.609 674.232 174.856C674.232 176.103 675.243 177.114 676.49 177.114Z" fill="#F2F2F2"/>
<path d="M376.922 273.472C378.169 273.472 379.18 272.461 379.18 271.214C379.18 269.966 378.169 268.956 376.922 268.956C375.675 268.956 374.664 269.966 374.664 271.214C374.664 272.461 375.675 273.472 376.922 273.472Z" fill="#F2F2F2"/>
<path d="M368.642 425.513C369.89 425.513 370.901 424.503 370.901 423.255C370.901 422.008 369.89 420.997 368.642 420.997C367.395 420.997 366.384 422.008 366.384 423.255C366.384 424.503 367.395 425.513 368.642 425.513Z" fill="#F2F2F2"/>
<path d="M829.284 189.91C830.116 189.91 830.79 189.236 830.79 188.404C830.79 187.573 830.116 186.899 829.284 186.899C828.453 186.899 827.779 187.573 827.779 188.404C827.779 189.236 828.453 189.91 829.284 189.91Z" fill="#F2F2F2"/>
<path d="M1010.68 402.18C1011.51 402.18 1012.19 401.506 1012.19 400.675C1012.19 399.844 1011.51 399.17 1010.68 399.17C1009.85 399.17 1009.18 399.844 1009.18 400.675C1009.18 401.506 1009.85 402.18 1010.68 402.18Z" fill="#F2F2F2"/>
<path d="M927.886 332.934C928.717 332.934 929.391 332.26 929.391 331.428C929.391 330.597 928.717 329.923 927.886 329.923C927.054 329.923 926.38 330.597 926.38 331.428C926.38 332.26 927.054 332.934 927.886 332.934Z" fill="#F2F2F2"/>
<path d="M513.158 223.78C513.989 223.78 514.663 223.106 514.663 222.275C514.663 221.444 513.989 220.77 513.158 220.77C512.326 220.77 511.652 221.444 511.652 222.275C511.652 223.106 512.326 223.78 513.158 223.78Z" fill="#F2F2F2"/>
<path d="M922.617 381.858C923.448 381.858 924.122 381.184 924.122 380.353C924.122 379.521 923.448 378.847 922.617 378.847C921.785 378.847 921.111 379.521 921.111 380.353C921.111 381.184 921.785 381.858 922.617 381.858Z" fill="#F2F2F2"/>
<path d="M386.707 533.147C387.538 533.147 388.212 532.473 388.212 531.642C388.212 530.81 387.538 530.136 386.707 530.136C385.875 530.136 385.201 530.81 385.201 531.642C385.201 532.473 385.875 533.147 386.707 533.147Z" fill="#F2F2F2"/>
<path d="M476.276 594.867C477.107 594.867 477.781 594.193 477.781 593.362C477.781 592.53 477.107 591.856 476.276 591.856C475.445 591.856 474.771 592.53 474.771 593.362C474.771 594.193 475.445 594.867 476.276 594.867Z" fill="#F2F2F2"/>
<path d="M606.49 111.826H604.413V109.749H603.299V111.826H601.221V112.941H603.299V115.018H604.413V112.941H606.49V111.826Z" fill="#F2F2F2"/>
<path d="M830.79 623.65H828.712V621.573H827.598V623.65H825.521V624.765H827.598V626.842H828.712V624.765H830.79V623.65Z" fill="#F2F2F2"/>
<path d="M970.036 592.79H967.959V590.713H966.844V592.79H964.767V593.905H966.844V595.982H967.959V593.905H970.036V592.79Z" fill="#F2F2F2"/>
<path d="M674.232 271.966C683.377 271.966 690.791 264.553 690.791 255.407C690.791 246.262 683.377 238.848 674.232 238.848C665.086 238.848 657.673 246.262 657.673 255.407C657.673 264.553 665.086 271.966 674.232 271.966Z" fill="#3F3D56"/>
<path d="M547.028 393.148C556.174 393.148 563.587 385.734 563.587 376.589C563.587 367.444 556.174 360.03 547.028 360.03C537.883 360.03 530.469 367.444 530.469 376.589C530.469 385.734 537.883 393.148 547.028 393.148Z" fill="#3F3D56"/>
<path d="M729.93 559.491C739.075 559.491 746.489 552.077 746.489 542.932C746.489 533.787 739.075 526.373 729.93 526.373C720.785 526.373 713.371 533.787 713.371 542.932C713.371 552.077 720.785 559.491 729.93 559.491Z" fill="#3F3D56"/>
<path d="M674.232 418.739C683.377 418.739 690.791 411.326 690.791 402.18C690.791 393.035 683.377 385.621 674.232 385.621C665.086 385.621 657.673 393.035 657.673 402.18C657.673 411.326 665.086 418.739 674.232 418.739Z" fill="#3F3D56"/>
<path d="M555.308 509.814C564.453 509.814 571.867 502.4 571.867 493.255C571.867 484.11 564.453 476.696 555.308 476.696C546.162 476.696 538.749 484.11 538.749 493.255C538.749 502.4 546.162 509.814 555.308 509.814Z" fill="#3F3D56"/>
<path d="M763.048 329.923C772.193 329.923 779.607 322.509 779.607 313.364C779.607 304.218 772.193 296.805 763.048 296.805C753.903 296.805 746.489 304.218 746.489 313.364C746.489 322.509 753.903 329.923 763.048 329.923Z" fill="#3F3D56"/>
<path d="M817.994 442.073C827.139 442.073 834.553 434.659 834.553 425.513C834.553 416.368 827.139 408.954 817.994 408.954C808.849 408.954 801.435 416.368 801.435 425.513C801.435 434.659 808.849 442.073 817.994 442.073Z" fill="#3F3D56"/>
<path d="M674.232 351.751C686.287 351.751 696.059 341.978 696.059 329.923C696.059 317.868 686.287 308.095 674.232 308.095C662.176 308.095 652.404 317.868 652.404 329.923C652.404 341.978 662.176 351.751 674.232 351.751Z" fill="white"/>
<path d="M674.232 298.31C666.047 298.31 658.198 301.561 652.41 307.349C646.623 313.136 643.372 320.986 643.372 329.17C643.372 346.214 674.232 402.18 674.232 402.18C674.232 402.18 705.092 346.214 705.092 329.17C705.092 320.986 701.84 313.136 696.053 307.349C690.266 301.561 682.416 298.31 674.232 298.31V298.31ZM674.232 344.224C671.403 344.224 668.638 343.385 666.286 341.814C663.935 340.242 662.102 338.009 661.019 335.396C659.937 332.782 659.654 329.907 660.205 327.133C660.757 324.359 662.119 321.81 664.119 319.81C666.119 317.81 668.667 316.448 671.442 315.897C674.216 315.345 677.091 315.628 679.704 316.71C682.318 317.793 684.551 319.626 686.122 321.978C687.694 324.329 688.533 327.094 688.533 329.923C688.533 331.801 688.163 333.66 687.444 335.396C686.725 337.131 685.672 338.707 684.344 340.035C683.016 341.363 681.439 342.416 679.704 343.135C677.969 343.854 676.11 344.224 674.232 344.224V344.224Z" fill="#C4302B"/>
<path d="M555.308 445.083C567.363 445.083 577.136 435.311 577.136 423.255C577.136 411.2 567.363 401.428 555.308 401.428C543.253 401.428 533.48 411.2 533.48 423.255C533.48 435.311 543.253 445.083 555.308 445.083Z" fill="white"/>
<path d="M555.308 391.643C547.123 391.643 539.274 394.894 533.486 400.681C527.699 406.469 524.448 414.318 524.448 422.503C524.448 439.546 555.308 495.513 555.308 495.513C555.308 495.513 586.168 439.546 586.168 422.503C586.168 414.318 582.916 406.469 577.129 400.681C571.342 394.894 563.492 391.643 555.308 391.643ZM555.308 437.556C552.479 437.556 549.714 436.718 547.363 435.146C545.011 433.575 543.178 431.341 542.095 428.728C541.013 426.115 540.73 423.24 541.282 420.465C541.833 417.691 543.195 415.143 545.195 413.143C547.195 411.143 549.744 409.781 552.518 409.229C555.292 408.677 558.167 408.961 560.781 410.043C563.394 411.125 565.627 412.958 567.199 415.31C568.77 417.662 569.609 420.427 569.609 423.255C569.609 425.133 569.239 426.993 568.52 428.728C567.801 430.463 566.748 432.04 565.42 433.368C564.092 434.696 562.516 435.749 560.781 436.468C559.045 437.186 557.186 437.556 555.308 437.556V437.556Z" fill="#C4302B"/>
<path d="M817.994 377.342C830.049 377.342 839.822 367.569 839.822 355.514C839.822 343.459 830.049 333.686 817.994 333.686C805.939 333.686 796.166 343.459 796.166 355.514C796.166 367.569 805.939 377.342 817.994 377.342Z" fill="white"/>
<path d="M817.994 323.901C809.809 323.901 801.96 327.153 796.173 332.94C790.385 338.727 787.134 346.577 787.134 354.761C787.134 371.805 817.994 427.772 817.994 427.772C817.994 427.772 848.854 371.805 848.854 354.761C848.854 346.577 845.603 338.727 839.815 332.94C834.028 327.153 826.179 323.901 817.994 323.901ZM817.994 369.815C815.166 369.815 812.401 368.976 810.049 367.405C807.697 365.833 805.864 363.6 804.782 360.987C803.699 358.374 803.416 355.498 803.968 352.724C804.52 349.95 805.882 347.402 807.882 345.402C809.882 343.402 812.43 342.04 815.204 341.488C817.978 340.936 820.854 341.219 823.467 342.302C826.08 343.384 828.313 345.217 829.885 347.569C831.456 349.921 832.295 352.686 832.295 355.514C832.295 359.307 830.788 362.944 828.106 365.626C825.424 368.308 821.787 369.815 817.994 369.815Z" fill="#C4302B"/>
<path d="M674.232 204.977C686.287 204.977 696.059 195.205 696.059 183.15C696.059 171.095 686.287 161.322 674.232 161.322C662.176 161.322 652.404 171.095 652.404 183.15C652.404 195.205 662.176 204.977 674.232 204.977Z" fill="white"/>
<path d="M674.232 151.537C666.047 151.537 658.198 154.788 652.41 160.576C646.623 166.363 643.372 174.212 643.372 182.397C643.372 199.441 674.232 255.407 674.232 255.407C674.232 255.407 705.092 199.441 705.092 182.397C705.092 174.212 701.84 166.363 696.053 160.576C690.266 154.788 682.416 151.537 674.232 151.537V151.537ZM674.232 197.451C671.403 197.451 668.638 196.612 666.286 195.041C663.935 193.469 662.102 191.236 661.019 188.622C659.937 186.009 659.654 183.134 660.205 180.36C660.757 177.586 662.119 175.037 664.119 173.037C666.119 171.037 668.667 169.675 671.442 169.123C674.216 168.572 677.091 168.855 679.704 169.937C682.318 171.02 684.551 172.853 686.122 175.204C687.694 177.556 688.533 180.321 688.533 183.15C688.533 186.943 687.026 190.58 684.344 193.262C681.662 195.944 678.024 197.451 674.232 197.451V197.451Z" fill="#C4302B"/>
<path d="M729.93 494.76C741.985 494.76 751.758 484.988 751.758 472.932C751.758 460.877 741.985 451.105 729.93 451.105C717.875 451.105 708.102 460.877 708.102 472.932C708.102 484.988 717.875 494.76 729.93 494.76Z" fill="white"/>
<path d="M729.93 441.32C721.746 441.32 713.896 444.571 708.109 450.359C702.321 456.146 699.07 463.995 699.07 472.18C699.07 489.223 729.93 545.19 729.93 545.19C729.93 545.19 760.79 489.223 760.79 472.18C760.79 468.127 759.992 464.114 758.441 460.37C756.89 456.626 754.617 453.224 751.751 450.359C748.886 447.493 745.484 445.22 741.74 443.669C737.996 442.118 733.983 441.32 729.93 441.32V441.32ZM729.93 487.233C727.102 487.233 724.337 486.395 721.985 484.823C719.633 483.252 717.8 481.018 716.718 478.405C715.635 475.792 715.352 472.917 715.904 470.142C716.456 467.368 717.818 464.82 719.818 462.82C721.818 460.82 724.366 459.458 727.14 458.906C729.914 458.354 732.79 458.638 735.403 459.72C738.016 460.802 740.25 462.635 741.821 464.987C743.392 467.339 744.231 470.104 744.231 472.932C744.231 476.725 742.724 480.363 740.042 483.045C737.36 485.727 733.723 487.233 729.93 487.233V487.233Z" fill="#C4302B"/>
<path d="M547.028 326.912C559.083 326.912 568.856 317.139 568.856 305.084C568.856 293.029 559.083 283.256 547.028 283.256C534.973 283.256 525.2 293.029 525.2 305.084C525.2 317.139 534.973 326.912 547.028 326.912Z" fill="white"/>
<path d="M547.028 273.472C538.844 273.472 530.994 276.723 525.207 282.51C519.42 288.298 516.168 296.147 516.168 304.332C516.168 321.375 547.028 377.342 547.028 377.342C547.028 377.342 577.888 321.375 577.888 304.332C577.888 300.279 577.09 296.266 575.539 292.522C573.988 288.778 571.715 285.376 568.85 282.51C565.984 279.645 562.582 277.372 558.838 275.821C555.094 274.27 551.081 273.472 547.028 273.472V273.472ZM547.028 319.385C544.2 319.385 541.435 318.547 539.083 316.975C536.731 315.404 534.898 313.17 533.816 310.557C532.733 307.944 532.45 305.068 533.002 302.294C533.554 299.52 534.916 296.972 536.916 294.972C538.916 292.972 541.464 291.61 544.238 291.058C547.012 290.506 549.888 290.789 552.501 291.872C555.114 292.954 557.348 294.787 558.919 297.139C560.49 299.491 561.329 302.256 561.329 305.084C561.329 308.877 559.823 312.515 557.141 315.197C554.459 317.879 550.821 319.385 547.028 319.385V319.385Z" fill="#C4302B"/>
<path d="M763.048 265.945C775.103 265.945 784.876 256.172 784.876 244.117C784.876 232.062 775.103 222.289 763.048 222.289C750.993 222.289 741.22 232.062 741.22 244.117C741.22 256.172 750.993 265.945 763.048 265.945Z" fill="white"/>
<path d="M763.048 212.504C754.864 212.504 747.014 215.756 741.227 221.543C735.439 227.33 732.188 235.18 732.188 243.364C732.188 260.408 763.048 316.375 763.048 316.375C763.048 316.375 793.908 260.408 793.908 243.364C793.908 235.18 790.657 227.33 784.869 221.543C779.082 215.756 771.233 212.504 763.048 212.504V212.504ZM763.048 258.418C760.22 258.418 757.455 257.579 755.103 256.008C752.751 254.436 750.918 252.203 749.836 249.59C748.753 246.977 748.47 244.101 749.022 241.327C749.574 238.553 750.936 236.005 752.936 234.005C754.936 232.005 757.484 230.643 760.258 230.091C763.032 229.539 765.908 229.822 768.521 230.905C771.134 231.987 773.368 233.82 774.939 236.172C776.51 238.524 777.349 241.289 777.349 244.117C777.349 247.91 775.842 251.547 773.16 254.229C770.479 256.911 766.841 258.418 763.048 258.418V258.418Z" fill="#C4302B"/>
<path d="M359.406 116.872C355.809 118.399 349.494 119.648 342.183 120.656C322.304 123.399 295.061 124.372 295.061 124.372C295.061 124.372 155.056 137.723 50.1173 88.0706C50.1173 88.0706 34.8535 78.8686 49.0319 66.4897C51.2101 64.6371 53.5272 63.0106 55.9557 61.6294C55.9557 61.6294 56.0143 61.5608 56.1305 61.4332C57.7411 59.7208 59.4821 58.178 61.3325 56.8232C66.7679 52.7835 75.9484 47.9906 87.1197 50.1614L362.717 101.412C362.717 101.412 372.784 111.191 359.406 116.872Z" fill="#F2F2F2"/>
<path d="M304.489 93.6466L362.187 46.5815L387.618 51.6376L362.717 101.412C362.717 101.412 305.152 101.938 304.489 93.6466Z" fill="#F2F2F2"/>
<path d="M159.228 65.0562L274.154 28L292.681 32.4501L240.766 59.299L224.538 80.1683L159.228 65.0562Z" fill="#F2F2F2"/>
<path d="M342.183 120.656C322.304 123.399 295.061 124.372 295.061 124.372C295.061 124.372 155.056 137.723 50.1173 88.0706C50.1173 88.0706 34.8535 78.8686 49.0319 66.4897L49.0801 66.716C49.0801 66.716 71.7219 84.3102 179.909 99.0007L342.183 120.656Z" fill="#F2F2F2"/>
<path d="M323.708 119.639L375.093 143.757L388 142.109L357.265 115.555C357.265 115.555 320.092 106.44 323.708 119.639Z" fill="#F2F2F2"/>
<path d="M67.6923 69.2923C65.2389 69.3416 59.6224 64.6125 56.1307 61.4332C57.7413 59.7208 59.4823 58.178 61.3327 56.8232C64.1472 59.3069 69.1577 63.3285 71.9429 63.1853C75.9632 62.9783 71.3829 69.2189 67.6923 69.2923Z" fill="#F2F2F2"/>
<path d="M301.121 203.017L268.132 205L175.385 133.096L158.167 119.747L149.799 113.26C165.491 98.0117 229.507 119.036 229.507 119.036C230.733 120.225 231.122 122.201 231.066 124.383C230.961 128.472 229.291 133.285 228.647 134.997C228.492 135.41 228.397 135.643 228.397 135.643L301.121 203.017Z" fill="#F2F2F2"/>
<path d="M359.406 116.872C355.809 118.399 349.494 119.648 342.183 120.656C322.304 123.399 295.061 124.372 295.061 124.372C295.061 124.372 155.056 137.723 50.1173 88.0706C50.1173 88.0706 34.8535 78.8686 49.0319 66.4897C51.2101 64.6371 53.5272 63.0106 55.9557 61.6294C55.9557 61.6294 56.0143 61.5608 56.1305 61.4332C57.7411 59.7208 59.4821 58.178 61.3325 56.8232C66.7679 52.7835 75.9484 47.9906 87.1197 50.1614L362.717 101.412C362.717 101.412 372.784 111.191 359.406 116.872Z" fill="#3F3D56"/>
<path d="M304.489 93.6466L362.187 46.5815L387.618 51.6376L362.717 101.412C362.717 101.412 305.152 101.938 304.489 93.6466Z" fill="#3F3D56"/>
<path d="M159.228 65.0562L274.154 28L292.681 32.4501L240.766 59.299L224.538 80.1683L159.228 65.0562Z" fill="#3F3D56"/>
<path d="M342.183 120.656C322.304 123.399 295.061 124.372 295.061 124.372C295.061 124.372 155.056 137.723 50.1173 88.0706C50.1173 88.0706 34.8535 78.8686 49.0319 66.4897L49.0801 66.716C49.0801 66.716 71.7219 84.3102 179.909 99.0007L342.183 120.656Z" fill="#3AB54A"/>
<path d="M323.708 119.639L375.093 143.757L388 142.109L357.265 115.555C357.265 115.555 320.092 106.44 323.708 119.639Z" fill="#3F3D56"/>
<path d="M67.6923 69.2923C65.2389 69.3416 59.6224 64.6125 56.1307 61.4332C57.7413 59.7208 59.4823 58.178 61.3327 56.8232C64.1472 59.3069 69.1577 63.3285 71.9429 63.1853C75.9632 62.9783 71.3829 69.2189 67.6923 69.2923Z" fill="#6C63FF"/>
<path d="M301.121 203.017L268.132 205L175.385 133.096L158.167 119.747L149.799 113.26C165.491 98.0117 229.507 119.036 229.507 119.036C230.733 120.225 231.122 122.201 231.066 124.383C230.961 128.472 229.291 133.285 228.647 134.997C228.492 135.41 228.397 135.643 228.397 135.643L301.121 203.017Z" fill="#3F3D56"/>
</svg>
