<svg width="942" height="867" viewBox="0 0 942 867" fill="none" xmlns="http://www.w3.org/2000/svg">
<rect width="942" height="867" fill="#F6FBFF"/>
<g clip-path="url(#clip0)">
<path d="M798.85 436.362H538.681V431H420.71V436.362H159.468C157.157 436.362 154.868 436.818 152.733 437.702C150.598 438.586 148.658 439.883 147.024 441.517C145.39 443.151 144.093 445.091 143.209 447.226C142.325 449.361 141.869 451.65 141.869 453.961V810.213C141.869 814.88 143.723 819.357 147.024 822.657C150.324 825.957 154.8 827.812 159.468 827.812H798.85C801.162 827.812 803.45 827.356 805.585 826.472C807.72 825.588 809.66 824.291 811.295 822.657C812.929 821.023 814.225 819.083 815.109 816.948C815.994 814.813 816.449 812.524 816.449 810.213V453.961C816.449 451.65 815.994 449.361 815.109 447.226C814.225 445.091 812.929 443.151 811.295 441.517C809.66 439.883 807.72 438.586 805.585 437.702C803.45 436.818 801.162 436.362 798.85 436.362V436.362Z" fill="#3F3D56"/>
<path d="M792.855 467.464H165.464V821.377H792.855V467.464Z" fill="#01AAAD"/>
<path d="M478.623 457.812C482.177 457.812 485.058 454.931 485.058 451.377C485.058 447.823 482.177 444.942 478.623 444.942C475.069 444.942 472.188 447.823 472.188 451.377C472.188 454.931 475.069 457.812 478.623 457.812Z" fill="#6C63FF"/>
<path d="M756.838 512.507H727.098V482.767H756.838V512.507ZM728.391 511.214H755.545V484.06H728.391V511.214Z" fill="#3F3D56"/>
<path d="M834.065 814.942H772.836V810.53C772.836 810.416 772.813 810.302 772.769 810.196C772.725 810.09 772.661 809.993 772.579 809.912C772.498 809.831 772.402 809.766 772.296 809.722C772.189 809.678 772.076 809.656 771.961 809.656H750.968C750.853 809.656 750.739 809.678 750.633 809.722C750.527 809.766 750.431 809.831 750.349 809.912C750.268 809.993 750.204 810.09 750.16 810.196C750.116 810.302 750.093 810.416 750.093 810.53V814.942H736.973V810.53C736.973 810.416 736.95 810.302 736.906 810.196C736.862 810.09 736.798 809.993 736.716 809.912C736.635 809.831 736.539 809.766 736.433 809.722C736.327 809.678 736.213 809.656 736.098 809.656H715.105C714.99 809.656 714.876 809.678 714.77 809.722C714.664 809.766 714.568 809.831 714.487 809.912C714.405 809.993 714.341 810.09 714.297 810.196C714.253 810.302 714.23 810.416 714.23 810.53V814.942H701.11V810.53C701.11 810.416 701.087 810.302 701.043 810.196C700.999 810.09 700.935 809.993 700.854 809.912C700.772 809.831 700.676 809.766 700.57 809.722C700.464 809.678 700.35 809.656 700.235 809.656H679.242C679.127 809.656 679.013 809.678 678.907 809.722C678.801 809.766 678.705 809.831 678.624 809.912C678.542 809.993 678.478 810.09 678.434 810.196C678.39 810.302 678.367 810.416 678.367 810.53V814.942H665.247V810.53C665.247 810.416 665.224 810.302 665.18 810.196C665.136 810.09 665.072 809.993 664.991 809.912C664.909 809.831 664.813 809.766 664.707 809.722C664.601 809.678 664.487 809.656 664.372 809.656H643.379C643.264 809.656 643.151 809.678 643.044 809.722C642.938 809.766 642.842 809.831 642.761 809.912C642.68 809.993 642.615 810.09 642.571 810.196C642.527 810.302 642.505 810.416 642.505 810.53V814.942H629.384V810.53C629.384 810.416 629.361 810.302 629.317 810.196C629.273 810.09 629.209 809.993 629.128 809.912C629.047 809.831 628.95 809.766 628.844 809.722C628.738 809.678 628.624 809.656 628.509 809.656H607.516C607.401 809.656 607.288 809.678 607.182 809.722C607.076 809.766 606.979 809.831 606.898 809.912C606.817 809.993 606.752 810.09 606.708 810.196C606.664 810.302 606.642 810.416 606.642 810.53V814.942H593.521V810.53C593.521 810.416 593.498 810.302 593.455 810.196C593.411 810.09 593.346 809.993 593.265 809.912C593.184 809.831 593.087 809.766 592.981 809.722C592.875 809.678 592.761 809.656 592.646 809.656H571.654C571.539 809.656 571.425 809.678 571.319 809.722C571.213 809.766 571.116 809.831 571.035 809.912C570.954 809.993 570.889 810.09 570.845 810.196C570.801 810.302 570.779 810.416 570.779 810.53V814.942H557.658V810.53C557.658 810.416 557.636 810.302 557.592 810.196C557.548 810.09 557.483 809.993 557.402 809.912C557.321 809.831 557.224 809.766 557.118 809.722C557.012 809.678 556.898 809.656 556.784 809.656H392.339C392.224 809.656 392.11 809.678 392.004 809.722C391.898 809.766 391.802 809.831 391.721 809.912C391.639 809.993 391.575 810.09 391.531 810.196C391.487 810.302 391.464 810.416 391.464 810.53V814.942H378.344V810.53C378.344 810.416 378.321 810.302 378.277 810.196C378.233 810.09 378.169 809.993 378.088 809.912C378.006 809.831 377.91 809.766 377.804 809.722C377.698 809.678 377.584 809.656 377.469 809.656H356.476C356.361 809.656 356.248 809.678 356.141 809.722C356.035 809.766 355.939 809.831 355.858 809.912C355.776 809.993 355.712 810.09 355.668 810.196C355.624 810.302 355.601 810.416 355.601 810.53V814.942H342.481V810.53C342.481 810.416 342.458 810.302 342.414 810.196C342.37 810.09 342.306 809.993 342.225 809.912C342.143 809.831 342.047 809.766 341.941 809.722C341.835 809.678 341.721 809.656 341.606 809.656H320.613C320.498 809.656 320.385 809.678 320.279 809.722C320.172 809.766 320.076 809.831 319.995 809.912C319.914 809.993 319.849 810.09 319.805 810.196C319.761 810.302 319.739 810.416 319.739 810.53V814.942H306.618V810.53C306.618 810.416 306.595 810.302 306.551 810.196C306.507 810.09 306.443 809.993 306.362 809.912C306.281 809.831 306.184 809.766 306.078 809.722C305.972 809.678 305.858 809.656 305.743 809.656H284.75C284.636 809.656 284.522 809.678 284.416 809.722C284.31 809.766 284.213 809.831 284.132 809.912C284.051 809.993 283.986 810.09 283.942 810.196C283.898 810.302 283.876 810.416 283.876 810.53V814.942H270.755V810.53C270.755 810.416 270.733 810.302 270.689 810.196C270.645 810.09 270.58 809.993 270.499 809.912C270.418 809.831 270.321 809.766 270.215 809.722C270.109 809.678 269.995 809.656 269.88 809.656H248.887C248.773 809.656 248.659 809.678 248.553 809.722C248.447 809.766 248.35 809.831 248.269 809.912C248.188 809.993 248.123 810.09 248.079 810.196C248.035 810.302 248.013 810.416 248.013 810.53V814.942H234.892V810.53C234.892 810.416 234.87 810.302 234.826 810.196C234.782 810.09 234.717 809.993 234.636 809.912C234.555 809.831 234.458 809.766 234.352 809.722C234.246 809.678 234.132 809.656 234.018 809.656H213.025C212.91 809.656 212.796 809.678 212.69 809.722C212.584 809.766 212.487 809.831 212.406 809.912C212.325 809.993 212.26 810.09 212.217 810.196C212.173 810.302 212.15 810.416 212.15 810.53V814.942H199.029V810.53C199.029 810.416 199.007 810.302 198.963 810.196C198.919 810.09 198.854 809.993 198.773 809.912C198.692 809.831 198.596 809.766 198.489 809.722C198.383 809.678 198.27 809.656 198.155 809.656H177.162C177.047 809.656 176.933 809.678 176.827 809.722C176.721 809.766 176.624 809.831 176.543 809.912C176.462 809.993 176.398 810.09 176.354 810.196C176.31 810.302 176.287 810.416 176.287 810.53V814.942H136.051C130.483 814.942 125.143 817.154 121.206 821.091C117.269 825.028 115.058 830.367 115.058 835.935V845.427C115.058 850.995 117.27 856.335 121.206 860.272C125.143 864.209 130.483 866.42 136.051 866.42H834.065C839.632 866.42 844.972 864.209 848.909 860.272C852.846 856.335 855.058 850.995 855.058 845.427V835.935C855.058 830.367 852.846 825.028 848.909 821.091C844.972 817.154 839.632 814.942 834.065 814.942V814.942Z" fill="#3F3D56"/>
<path d="M754.072 664.671H552.072V549.671H754.072V664.671ZM554.072 662.671H752.072V551.671H554.072V662.671Z" fill="#3F3D56"/>
<path d="M384.072 687.671H204.072V575.671H384.072V687.671ZM206.072 685.671H382.072V577.671H206.072V685.671Z" fill="#3F3D56"/>
<path d="M288.166 644.671L287.993 642.434C287.478 637.791 289.026 632.717 293.325 627.557C297.196 622.999 299.345 619.645 299.345 615.775C299.345 611.389 296.594 608.466 291.176 608.38C288.077 608.367 285.048 609.297 282.49 611.046L280.426 605.628C283.264 603.563 288.166 602.187 292.723 602.187C302.614 602.187 307.085 608.294 307.085 614.829C307.085 620.678 303.817 624.891 299.689 629.793C295.906 634.264 294.53 638.049 294.787 642.434L294.873 644.671L288.166 644.671ZM286.274 656.711C286.227 656.009 286.327 655.306 286.567 654.644C286.806 653.983 287.18 653.379 287.665 652.87C288.15 652.361 288.735 651.958 289.384 651.686C290.033 651.415 290.73 651.281 291.433 651.293C294.444 651.293 296.508 653.528 296.508 656.711C296.536 657.4 296.425 658.089 296.18 658.734C295.936 659.38 295.564 659.97 295.086 660.468C294.608 660.966 294.034 661.362 293.399 661.633C292.764 661.903 292.081 662.043 291.391 662.043C290.7 662.043 290.017 661.903 289.382 661.633C288.747 661.362 288.174 660.966 287.696 660.468C287.218 659.97 286.845 659.38 286.601 658.734C286.357 658.089 286.245 657.4 286.274 656.711V656.711Z" fill="#D0CDE1"/>
<path d="M647.166 619.671L646.994 617.434C646.478 612.791 648.026 607.717 652.326 602.557C656.196 597.999 658.346 594.645 658.346 590.775C658.346 586.389 655.594 583.466 650.176 583.38C647.077 583.367 644.048 584.297 641.49 586.046L639.426 580.628C642.264 578.563 647.166 577.187 651.723 577.187C661.614 577.187 666.085 583.294 666.085 589.829C666.085 595.678 662.817 599.891 658.689 604.793C654.906 609.264 653.53 613.049 653.787 617.434L653.873 619.671L647.166 619.671ZM645.274 631.711C645.228 631.009 645.327 630.306 645.567 629.644C645.806 628.983 646.18 628.379 646.665 627.87C647.15 627.361 647.735 626.958 648.384 626.686C649.033 626.415 649.73 626.281 650.433 626.293C653.444 626.293 655.508 628.528 655.508 631.711C655.536 632.4 655.425 633.089 655.18 633.734C654.936 634.38 654.564 634.97 654.086 635.468C653.608 635.966 653.034 636.362 652.399 636.633C651.764 636.903 651.081 637.043 650.391 637.043C649.7 637.043 649.017 636.903 648.382 636.633C647.747 636.362 647.174 635.966 646.696 635.468C646.218 634.97 645.845 634.38 645.601 633.734C645.357 633.089 645.245 632.4 645.274 631.711V631.711Z" fill="#D0CDE1"/>
<path d="M482.693 778.141C530.351 778.141 568.985 739.507 568.985 691.849C568.985 644.191 530.351 605.556 482.693 605.556C435.035 605.556 396.401 644.191 396.401 691.849C396.401 739.507 435.035 778.141 482.693 778.141Z" fill="#2F2E41"/>
<path d="M449.365 810.018L423.568 805.348L431.935 751.484L457.731 756.154L449.365 810.018Z" fill="#2F2E41"/>
<path d="M509.324 765.493L483.527 760.824L475.161 807.042L500.957 811.711L509.324 765.493Z" fill="#2F2E41"/>
<path d="M518.199 814.229C519.094 809.794 510.232 804.263 498.405 801.876C486.579 799.488 476.266 801.148 475.37 805.583C474.475 810.018 483.337 815.549 495.163 817.936C506.99 820.324 517.303 818.664 518.199 814.229Z" fill="#2F2E41"/>
<path d="M464.47 812.836C465.064 808.351 455.85 803.43 443.889 801.846C431.928 800.261 421.75 802.613 421.156 807.098C420.562 811.583 429.776 816.504 441.737 818.088C453.698 819.673 463.876 817.321 464.47 812.836Z" fill="#2F2E41"/>
<path d="M488.734 700.233C505.022 700.233 518.227 687.029 518.227 670.741C518.227 654.453 505.022 641.249 488.734 641.249C472.446 641.249 459.242 654.453 459.242 670.741C459.242 687.029 472.446 700.233 488.734 700.233Z" fill="white"/>
<path d="M500.856 670.001C506.285 670.001 510.686 665.599 510.686 660.17C510.686 654.74 506.285 650.339 500.856 650.339C495.426 650.339 491.025 654.74 491.025 660.17C491.025 665.599 495.426 670.001 500.856 670.001Z" fill="#3F3D56"/>
<path d="M414.621 597.972C413.323 566.025 440.856 538.966 476.118 537.534C511.38 536.102 541.017 560.838 542.315 592.785C543.613 624.732 519.101 631.99 483.839 633.423C448.578 634.855 415.918 629.919 414.621 597.972Z" fill="white"/>
<path d="M565.398 689.33C588.625 684.006 606.099 673.779 604.428 666.488C602.756 659.196 582.572 657.601 559.346 662.925C536.119 668.249 518.645 678.476 520.317 685.768C521.988 693.059 542.172 694.654 565.398 689.33Z" fill="#2F2E41"/>
<path d="M396.01 717.499C419.236 712.175 436.71 701.948 435.039 694.657C433.368 687.365 413.184 685.77 389.957 691.094C366.731 696.418 349.257 706.645 350.928 713.937C352.599 721.228 372.783 722.823 396.01 717.499Z" fill="#2F2E41"/>
<path d="M458.993 725.855C458.533 728.396 458.578 731.003 459.125 733.526C459.673 736.049 460.712 738.44 462.183 740.562C463.654 742.683 465.529 744.495 467.7 745.892C469.872 747.289 472.297 748.245 474.838 748.705C477.378 749.165 479.985 749.12 482.508 748.572C485.031 748.025 487.422 746.986 489.544 745.515C491.666 744.043 493.477 742.169 494.874 739.997C496.271 737.826 497.227 735.401 497.687 732.86C499.621 722.175 491.36 718.394 480.675 716.46C469.99 714.525 460.927 715.17 458.993 725.855Z" fill="white"/>
<path d="M296.422 444.122H154.535V579.09H296.422V444.122Z" fill="#D0CDE1"/>
<path d="M280.298 460.246H170.658V544.088H280.298V460.246Z" fill="white"/>
<path d="M230.186 553.979H170.55V557.118H230.186V553.979Z" fill="#6C63FF"/>
<path d="M230.186 563.396H170.55V566.534H230.186V563.396Z" fill="#6C63FF"/>
<path d="M190.167 514.745C197.101 514.745 202.722 509.124 202.722 502.19C202.722 495.256 197.101 489.634 190.167 489.634C183.233 489.634 177.612 495.256 177.612 502.19C177.612 509.124 183.233 514.745 190.167 514.745Z" fill="#C4302B"/>
<path d="M225.478 514.745C232.412 514.745 238.033 509.124 238.033 502.19C238.033 495.256 232.412 489.634 225.478 489.634C218.544 489.634 212.923 495.256 212.923 502.19C212.923 509.124 218.544 514.745 225.478 514.745Z" fill="#3AB54A"/>
<path d="M260.789 514.745C267.723 514.745 273.345 509.124 273.345 502.19C273.345 495.256 267.723 489.634 260.789 489.634C253.855 489.634 248.234 495.256 248.234 502.19C248.234 509.124 253.855 514.745 260.789 514.745Z" fill="#E6E6E6"/>
<path d="M225.478 458.247C228.945 458.247 231.756 455.436 231.756 451.969C231.756 448.502 228.945 445.692 225.478 445.692C222.011 445.692 219.201 448.502 219.201 451.969C219.201 455.436 222.011 458.247 225.478 458.247Z" fill="#3F3D56"/>
<path d="M363.909 705.459H222.022V840.426H363.909V705.459Z" fill="#D0CDE1"/>
<path d="M347.786 721.582H238.146V805.425H347.786V721.582Z" fill="white"/>
<path d="M300.709 735.361H262.272V773.798H300.709V735.361Z" fill="#3AB54A"/>
<path d="M276.986 744.973V791.646H323.66V744.973H276.986ZM321.635 789.622H279.01V746.997H321.635V789.622Z" fill="#3F3D56"/>
<path d="M297.674 813.747H238.037V816.885H297.674V813.747Z" fill="#6C63FF"/>
<path d="M292.966 719.583C296.433 719.583 299.243 716.773 299.243 713.306C299.243 709.839 296.433 707.028 292.966 707.028C289.499 707.028 286.688 709.839 286.688 713.306C286.688 716.773 289.499 719.583 292.966 719.583Z" fill="#3F3D56"/>
<path d="M733.323 665.053H591.437V800.02H733.323V665.053Z" fill="#6C63FF"/>
<path d="M717.2 681.176H607.56V765.019H717.2V681.176Z" fill="white"/>
<path d="M674.173 746.812H650.587V753.802H674.173V746.812Z" fill="#3F3D56"/>
<path d="M702.688 692.393H622.072V695.388H702.688V692.393Z" fill="#3F3D56"/>
<path d="M702.688 701.879H622.072V704.874H702.688V701.879Z" fill="#3F3D56"/>
<path d="M702.688 711.365H622.072V714.36H702.688V711.365Z" fill="#3F3D56"/>
<path d="M702.688 720.851H622.072V723.846H702.688V720.851Z" fill="#3F3D56"/>
<path d="M702.688 730.337H622.072V733.332H702.688V730.337Z" fill="#3F3D56"/>
<path d="M667.088 773.341H607.451V776.479H667.088V773.341Z" fill="#F2F2F2"/>
<path d="M690.629 781.187H607.451V784.326H690.629V781.187Z" fill="#F2F2F2"/>
<path d="M662.38 679.177C665.847 679.177 668.658 676.367 668.658 672.9C668.658 669.433 665.847 666.622 662.38 666.622C658.913 666.622 656.102 669.433 656.102 672.9C656.102 676.367 658.913 679.177 662.38 679.177Z" fill="#3F3D56"/>
</g>
<path d="M532.74 347.483L532.568 345.247C532.052 340.604 533.6 335.529 537.9 330.37C541.77 325.812 543.92 322.458 543.92 318.588C543.92 314.202 541.168 311.278 535.75 311.192C532.651 311.18 529.622 312.11 527.064 313.858L525 308.44C527.838 306.376 532.74 305 537.298 305C547.188 305 551.66 311.106 551.66 317.642C551.66 323.49 548.392 327.704 544.264 332.605C540.48 337.077 539.104 340.861 539.362 345.247L539.448 347.483L532.74 347.483ZM530.848 359.523C530.802 358.822 530.902 358.118 531.141 357.457C531.381 356.796 531.755 356.192 532.24 355.683C532.724 355.173 533.31 354.77 533.958 354.499C534.607 354.227 535.305 354.093 536.008 354.105C539.018 354.105 541.082 356.341 541.082 359.523C541.11 360.213 540.999 360.901 540.755 361.547C540.511 362.193 540.138 362.782 539.66 363.28C539.182 363.778 538.609 364.175 537.974 364.445C537.339 364.716 536.655 364.856 535.965 364.856C535.275 364.856 534.592 364.716 533.957 364.445C533.322 364.175 532.748 363.778 532.27 363.28C531.792 362.782 531.42 362.193 531.175 361.547C530.931 360.901 530.82 360.213 530.848 359.523V359.523Z" fill="#D0CDE1"/>
<path d="M133.74 67.4834L133.568 65.2471C133.052 60.6035 134.6 55.5293 138.9 50.3701C142.77 45.8115 144.92 42.458 144.92 38.5879C144.92 34.2022 142.168 31.2784 136.75 31.1924C133.651 31.1798 130.622 32.1096 128.064 33.8584L126 28.4404C128.838 26.376 133.74 25 138.298 25C148.188 25 152.66 31.1064 152.66 37.6416C152.66 43.4902 149.392 47.7041 145.264 52.6055C141.48 57.0771 140.104 60.8613 140.362 65.2471L140.448 67.4834L133.74 67.4834ZM131.848 79.5234C131.802 78.8218 131.902 78.1182 132.141 77.4572C132.381 76.7961 132.755 76.1918 133.24 75.6826C133.724 75.1735 134.31 74.7704 134.958 74.4989C135.607 74.2275 136.305 74.0935 137.008 74.1054C140.018 74.1054 142.082 76.3408 142.082 79.5234C142.11 80.2131 141.999 80.9015 141.755 81.5471C141.511 82.1927 141.138 82.7822 140.66 83.2803C140.182 83.7784 139.609 84.1747 138.974 84.4454C138.339 84.7161 137.655 84.8557 136.965 84.8557C136.275 84.8557 135.592 84.7161 134.957 84.4454C134.322 84.1747 133.748 83.7784 133.27 83.2803C132.792 82.7822 132.42 82.1927 132.175 81.5471C131.931 80.9015 131.82 80.2131 131.848 79.5234V79.5234Z" fill="#D0CDE1"/>
<path d="M627.74 127.483L627.568 125.247C627.052 120.604 628.6 115.529 632.9 110.37C636.77 105.812 638.92 102.458 638.92 98.5879C638.92 94.2022 636.168 91.2784 630.75 91.1924C627.651 91.1798 624.622 92.1096 622.064 93.8584L620 88.4404C622.838 86.376 627.74 85 632.298 85C642.188 85 646.66 91.1064 646.66 97.6416C646.66 103.49 643.392 107.704 639.264 112.605C635.48 117.077 634.104 120.861 634.362 125.247L634.448 127.483L627.74 127.483ZM625.848 139.523C625.802 138.822 625.902 138.118 626.141 137.457C626.381 136.796 626.755 136.192 627.24 135.683C627.724 135.173 628.31 134.77 628.958 134.499C629.607 134.227 630.305 134.093 631.008 134.105C634.018 134.105 636.082 136.341 636.082 139.523C636.11 140.213 635.999 140.901 635.755 141.547C635.511 142.193 635.138 142.782 634.66 143.28C634.182 143.778 633.609 144.175 632.974 144.445C632.339 144.716 631.655 144.856 630.965 144.856C630.275 144.856 629.592 144.716 628.957 144.445C628.322 144.175 627.748 143.778 627.27 143.28C626.792 142.782 626.42 142.193 626.175 141.547C625.931 140.901 625.82 140.213 625.848 139.523V139.523Z" fill="#D0CDE1"/>
<path d="M264.485 294.792L263.806 287.17C261.776 271.344 267.872 254.05 284.807 236.467C300.049 220.93 308.517 209.5 308.517 196.31C308.517 181.363 297.678 171.398 276.339 171.105C264.135 171.062 252.204 174.231 242.129 180.191L234 161.726C245.179 154.69 264.485 150 282.436 150C321.388 150 339 170.812 339 193.085C339 213.018 326.129 227.38 309.871 244.085C294.968 259.325 289.549 272.223 290.564 287.17L290.903 294.792L264.485 294.792ZM257.033 335.827C256.851 333.436 257.244 331.038 258.187 328.784C259.13 326.531 260.603 324.472 262.513 322.737C264.423 321.001 266.728 319.627 269.283 318.702C271.837 317.777 274.586 317.32 277.355 317.361C289.211 317.361 297.34 324.98 297.34 335.827C297.452 338.177 297.013 340.523 296.051 342.724C295.089 344.924 293.622 346.933 291.74 348.631C289.857 350.328 287.598 351.679 285.097 352.602C282.596 353.524 279.905 354 277.186 354C274.468 354 271.777 353.524 269.276 352.602C266.775 351.679 264.516 350.328 262.633 348.631C260.751 346.933 259.284 344.924 258.322 342.724C257.36 340.523 256.921 338.177 257.033 335.827V335.827Z" fill="#D0CDE1"/>
<path d="M492.84 402.69H423.67V334.53H492.89L492.84 402.69ZM491.84 299.92H424.67C424.67 194 525.35 200.19 525.35 133.18C525.35 96.2702 495.14 66.7002 458.23 66.7002C421.32 66.7002 391.12 98.5802 391.12 134.23H324C323.97 116.594 327.421 99.126 334.156 82.8268C340.891 66.5276 350.777 51.7181 363.248 39.2477C375.718 26.7772 390.528 16.8911 406.827 10.1561C423.126 3.42118 440.594 -0.0300988 458.23 0.000197746C532.37 0.000197746 592.46 59.1502 592.46 133.18C592.46 216.97 491.79 226.51 491.79 299.92H491.84Z" fill="#6C63FF"/>
<path d="M732.533 365H697.492V329.455H732.559L732.533 365ZM732.027 311.406H697.999C697.999 256.17 749.003 259.398 749.003 224.453C749.003 205.204 733.698 189.784 715 189.784C696.302 189.784 681.003 206.409 681.003 225H647C646.985 215.803 648.733 206.693 652.145 198.194C655.557 189.694 660.565 181.971 666.883 175.467C673.2 168.964 680.702 163.809 688.959 160.296C697.216 156.784 706.066 154.984 715 155C752.559 155 783 185.846 783 224.453C783 268.148 732.001 273.123 732.001 311.406H732.027Z" fill="#6C63FF"/>
<path d="M129.829 403H108.186V384.55H129.845L129.829 403ZM129.516 375.182H108.499C108.499 346.512 140.002 348.187 140.002 330.049C140.002 320.058 130.549 312.054 119 312.054C107.451 312.054 98.0016 320.684 98.0016 330.333H77.0001C76.9906 325.56 78.0705 320.831 80.1778 316.42C82.2852 312.008 85.3785 307.999 89.2804 304.624C93.1824 301.248 97.8162 298.572 102.916 296.749C108.016 294.926 113.482 293.992 119 294C142.198 294 161 310.011 161 330.049C161 352.729 129.501 355.312 129.501 375.182H129.516Z" fill="#6C63FF"/>
<defs>
<clipPath id="clip0">
<rect y="431" width="941.404" height="435.42" fill="white"/>
</clipPath>
</defs>
</svg>
